<?xml version="1.0" encoding="UTF-8" standalone="no"?>
<!DOCTYPE svg PUBLIC "-//W3C//DTD SVG 1.1//EN"
 "http://www.w3.org/Graphics/SVG/1.1/DTD/svg11.dtd">
<!-- Generated by graphviz version 2.50.0 (0)
 -->
<!-- Title: NFA_Graph Pages: 1 -->
<svg width="495pt" height="954pt"
 viewBox="0.00 0.00 495.00 954.50" xmlns="http://www.w3.org/2000/svg" xmlns:xlink="http://www.w3.org/1999/xlink">
<g id="graph0" class="graph" transform="scale(1 1) rotate(0) translate(4 950.5)">
<title>NFA_Graph</title>
<polygon fill="white" stroke="transparent" points="-4,4 -4,-950.5 491,-950.5 491,4 -4,4"/>
<text text-anchor="middle" x="113" y="-931.3" font-family="Times,serif" font-size="14.00">regexp = ((a|b)*|(cd|(e|g|h)))[[:digit:]]</text>
<!-- s23 -->
<g id="node1" class="node">
<title>s23</title>
<ellipse fill="none" stroke="black" cx="362" cy="-26.75" rx="22.96" ry="22.96"/>
<ellipse fill="none" stroke="black" cx="362" cy="-26.75" rx="27" ry="27"/>
<text text-anchor="middle" x="362" y="-23.05" font-family="Times,serif" font-size="14.00">s23</text>
</g>
<!-- s_start -->
<!-- s0 -->
<g id="node3" class="node">
<title>s0</title>
<ellipse fill="none" stroke="black" cx="222" cy="-818.5" rx="27" ry="18"/>
<text text-anchor="middle" x="222" y="-814.8" font-family="Times,serif" font-size="14.00">s0</text>
</g>
<!-- s_start&#45;&gt;s0 -->
<g id="edge1" class="edge">
<title>s_start&#45;&gt;s0</title>
<path fill="none" stroke="black" d="M222,-887.29C222,-875.66 222,-860.04 222,-846.73"/>
<polygon fill="black" stroke="black" points="225.5,-846.67 222,-836.67 218.5,-846.67 225.5,-846.67"/>
<text text-anchor="middle" x="235.5" y="-858.3" font-family="Times,serif" font-size="14.00">start</text>
</g>
<!-- s2 -->
<g id="node4" class="node">
<title>s2</title>
<ellipse fill="none" stroke="black" cx="351" cy="-731.5" rx="27" ry="18"/>
<text text-anchor="middle" x="351" y="-727.8" font-family="Times,serif" font-size="14.00">s2</text>
</g>
<!-- s0&#45;&gt;s2 -->
<g id="edge2" class="edge">
<title>s0&#45;&gt;s2</title>
<path fill="none" stroke="black" d="M240.48,-805.32C262.32,-790.93 298.85,-766.86 323.89,-750.36"/>
<polygon fill="black" stroke="black" points="326.13,-753.08 332.55,-744.65 322.28,-747.23 326.13,-753.08"/>
<text text-anchor="middle" x="297.5" y="-771.3" font-family="Times,serif" font-size="14.00">ε</text>
</g>
<!-- s8 -->
<g id="node5" class="node">
<title>s8</title>
<ellipse fill="none" stroke="black" cx="205" cy="-731.5" rx="27" ry="18"/>
<text text-anchor="middle" x="205" y="-727.8" font-family="Times,serif" font-size="14.00">s8</text>
</g>
<!-- s0&#45;&gt;s8 -->
<g id="edge3" class="edge">
<title>s0&#45;&gt;s8</title>
<path fill="none" stroke="black" d="M214.82,-801.04C212.6,-795.28 210.37,-788.7 209,-782.5 207.39,-775.21 206.41,-767.21 205.82,-759.78"/>
<polygon fill="black" stroke="black" points="209.31,-759.56 205.21,-749.79 202.32,-759.99 209.31,-759.56"/>
<text text-anchor="middle" x="212.5" y="-771.3" font-family="Times,serif" font-size="14.00">ε</text>
</g>
<!-- s4 -->
<g id="node8" class="node">
<title>s4</title>
<ellipse fill="none" stroke="black" cx="315" cy="-644.5" rx="27" ry="18"/>
<text text-anchor="middle" x="315" y="-640.8" font-family="Times,serif" font-size="14.00">s4</text>
</g>
<!-- s2&#45;&gt;s4 -->
<g id="edge5" class="edge">
<title>s2&#45;&gt;s4</title>
<path fill="none" stroke="black" d="M343.89,-713.7C338.78,-701.63 331.79,-685.13 325.97,-671.39"/>
<polygon fill="black" stroke="black" points="329.1,-669.81 321.98,-661.97 322.65,-672.54 329.1,-669.81"/>
<text text-anchor="middle" x="338.5" y="-684.3" font-family="Times,serif" font-size="14.00">ε</text>
</g>
<!-- s6 -->
<g id="node9" class="node">
<title>s6</title>
<ellipse fill="none" stroke="black" cx="387" cy="-644.5" rx="27" ry="18"/>
<text text-anchor="middle" x="387" y="-640.8" font-family="Times,serif" font-size="14.00">s6</text>
</g>
<!-- s2&#45;&gt;s6 -->
<g id="edge6" class="edge">
<title>s2&#45;&gt;s6</title>
<path fill="none" stroke="black" d="M358.11,-713.7C363.22,-701.63 370.21,-685.13 376.03,-671.39"/>
<polygon fill="black" stroke="black" points="379.35,-672.54 380.02,-661.97 372.9,-669.81 379.35,-672.54"/>
<text text-anchor="middle" x="374.5" y="-684.3" font-family="Times,serif" font-size="14.00">ε</text>
</g>
<!-- s3 -->
<g id="node10" class="node">
<title>s3</title>
<ellipse fill="none" stroke="black" cx="381" cy="-818.5" rx="27" ry="18"/>
<text text-anchor="middle" x="381" y="-814.8" font-family="Times,serif" font-size="14.00">s3</text>
</g>
<!-- s2&#45;&gt;s3 -->
<g id="edge7" class="edge">
<title>s2&#45;&gt;s3</title>
<path fill="none" stroke="black" d="M349.57,-749.68C349.34,-759.57 350.09,-772.07 354,-782.5 355.62,-786.82 357.97,-791.04 360.61,-794.97"/>
<polygon fill="black" stroke="black" points="357.89,-797.17 366.71,-803.04 363.47,-792.95 357.89,-797.17"/>
<text text-anchor="middle" x="357.5" y="-771.3" font-family="Times,serif" font-size="14.00">ε</text>
</g>
<!-- s10 -->
<g id="node13" class="node">
<title>s10</title>
<ellipse fill="none" stroke="black" cx="205" cy="-644.5" rx="27" ry="18"/>
<text text-anchor="middle" x="205" y="-640.8" font-family="Times,serif" font-size="14.00">s10</text>
</g>
<!-- s8&#45;&gt;s10 -->
<g id="edge14" class="edge">
<title>s8&#45;&gt;s10</title>
<path fill="none" stroke="black" d="M205,-713.29C205,-701.66 205,-686.04 205,-672.73"/>
<polygon fill="black" stroke="black" points="208.5,-672.67 205,-662.67 201.5,-672.67 208.5,-672.67"/>
<text text-anchor="middle" x="208.5" y="-684.3" font-family="Times,serif" font-size="14.00">ε</text>
</g>
<!-- s14 -->
<g id="node14" class="node">
<title>s14</title>
<ellipse fill="none" stroke="black" cx="124" cy="-644.5" rx="27" ry="18"/>
<text text-anchor="middle" x="124" y="-640.8" font-family="Times,serif" font-size="14.00">s14</text>
</g>
<!-- s8&#45;&gt;s14 -->
<g id="edge15" class="edge">
<title>s8&#45;&gt;s14</title>
<path fill="none" stroke="black" d="M190.89,-715.69C178.23,-702.4 159.48,-682.72 145.04,-667.58"/>
<polygon fill="black" stroke="black" points="147.38,-664.96 137.95,-660.13 142.31,-669.79 147.38,-664.96"/>
<text text-anchor="middle" x="173.5" y="-684.3" font-family="Times,serif" font-size="14.00">ε</text>
</g>
<!-- s1 -->
<g id="node6" class="node">
<title>s1</title>
<ellipse fill="none" stroke="black" cx="362" cy="-209.5" rx="27" ry="18"/>
<text text-anchor="middle" x="362" y="-205.8" font-family="Times,serif" font-size="14.00">s1</text>
</g>
<!-- s22 -->
<g id="node7" class="node">
<title>s22</title>
<ellipse fill="none" stroke="black" cx="362" cy="-122.5" rx="27" ry="18"/>
<text text-anchor="middle" x="362" y="-118.8" font-family="Times,serif" font-size="14.00">s22</text>
</g>
<!-- s1&#45;&gt;s22 -->
<g id="edge4" class="edge">
<title>s1&#45;&gt;s22</title>
<path fill="none" stroke="black" d="M362,-191.29C362,-179.66 362,-164.04 362,-150.73"/>
<polygon fill="black" stroke="black" points="365.5,-150.67 362,-140.67 358.5,-150.67 365.5,-150.67"/>
<text text-anchor="middle" x="365.5" y="-162.3" font-family="Times,serif" font-size="14.00">ε</text>
</g>
<!-- s22&#45;&gt;s23 -->
<g id="edge31" class="edge">
<title>s22&#45;&gt;s23</title>
<path fill="none" stroke="black" d="M362,-104.3C362,-93.01 362,-77.82 362,-63.95"/>
<polygon fill="black" stroke="black" points="365.5,-63.68 362,-53.68 358.5,-63.68 365.5,-63.68"/>
<text text-anchor="middle" x="396" y="-75.3" font-family="Times,serif" font-size="14.00">0123456789</text>
</g>
<!-- s5 -->
<g id="node11" class="node">
<title>s5</title>
<ellipse fill="none" stroke="black" cx="315" cy="-557.5" rx="27" ry="18"/>
<text text-anchor="middle" x="315" y="-553.8" font-family="Times,serif" font-size="14.00">s5</text>
</g>
<!-- s4&#45;&gt;s5 -->
<g id="edge10" class="edge">
<title>s4&#45;&gt;s5</title>
<path fill="none" stroke="black" d="M315,-626.29C315,-614.66 315,-599.04 315,-585.73"/>
<polygon fill="black" stroke="black" points="318.5,-585.67 315,-575.67 311.5,-585.67 318.5,-585.67"/>
<text text-anchor="middle" x="318.5" y="-597.3" font-family="Times,serif" font-size="14.00">a</text>
</g>
<!-- s7 -->
<g id="node12" class="node">
<title>s7</title>
<ellipse fill="none" stroke="black" cx="422" cy="-557.5" rx="27" ry="18"/>
<text text-anchor="middle" x="422" y="-553.8" font-family="Times,serif" font-size="14.00">s7</text>
</g>
<!-- s6&#45;&gt;s7 -->
<g id="edge12" class="edge">
<title>s6&#45;&gt;s7</title>
<path fill="none" stroke="black" d="M393.91,-626.7C398.88,-614.63 405.68,-598.13 411.34,-584.39"/>
<polygon fill="black" stroke="black" points="414.65,-585.54 415.22,-574.97 408.17,-582.88 414.65,-585.54"/>
<text text-anchor="middle" x="410" y="-597.3" font-family="Times,serif" font-size="14.00">b</text>
</g>
<!-- s3&#45;&gt;s2 -->
<g id="edge8" class="edge">
<title>s3&#45;&gt;s2</title>
<path fill="none" stroke="black" d="M375.07,-800.7C370.88,-788.83 365.18,-772.66 360.37,-759.05"/>
<polygon fill="black" stroke="black" points="363.54,-757.52 356.91,-749.25 356.94,-759.85 363.54,-757.52"/>
<text text-anchor="middle" x="370.5" y="-771.3" font-family="Times,serif" font-size="14.00">ε</text>
</g>
<!-- s3&#45;&gt;s1 -->
<g id="edge9" class="edge">
<title>s3&#45;&gt;s1</title>
<path fill="none" stroke="black" d="M404.46,-809.26C433.74,-797.3 480,-772.14 480,-732.5 480,-732.5 480,-732.5 480,-295.5 480,-254.13 431.67,-230.9 396.88,-219.53"/>
<polygon fill="black" stroke="black" points="397.61,-216.1 387.02,-216.51 395.56,-222.79 397.61,-216.1"/>
<text text-anchor="middle" x="483.5" y="-510.3" font-family="Times,serif" font-size="14.00">ε</text>
</g>
<!-- s5&#45;&gt;s3 -->
<g id="edge11" class="edge">
<title>s5&#45;&gt;s3</title>
<path fill="none" stroke="black" d="M303.9,-574.08C295.21,-587.31 283.8,-607.18 279,-626.5 275.14,-642.02 275.88,-646.8 279,-662.5 287.16,-703.54 292.3,-714.34 315,-749.5 325.91,-766.4 331.99,-768.05 346,-782.5 350.21,-786.84 354.76,-791.45 359.14,-795.84"/>
<polygon fill="black" stroke="black" points="356.7,-798.36 366.25,-802.95 361.65,-793.41 356.7,-798.36"/>
<text text-anchor="middle" x="289.5" y="-684.3" font-family="Times,serif" font-size="14.00">ε</text>
</g>
<!-- s7&#45;&gt;s3 -->
<g id="edge13" class="edge">
<title>s7&#45;&gt;s3</title>
<path fill="none" stroke="black" d="M422.32,-575.54C422.56,-589.3 422.87,-609.14 423,-626.5 423.12,-642.5 425.11,-646.64 423,-662.5 416.85,-708.68 400.84,-760.62 390.45,-791.11"/>
<polygon fill="black" stroke="black" points="387.13,-790 387.17,-800.6 393.75,-792.29 387.13,-790"/>
<text text-anchor="middle" x="423.5" y="-684.3" font-family="Times,serif" font-size="14.00">ε</text>
</g>
<!-- s11 -->
<g id="node16" class="node">
<title>s11</title>
<ellipse fill="none" stroke="black" cx="243" cy="-557.5" rx="27" ry="18"/>
<text text-anchor="middle" x="243" y="-553.8" font-family="Times,serif" font-size="14.00">s11</text>
</g>
<!-- s10&#45;&gt;s11 -->
<g id="edge17" class="edge">
<title>s10&#45;&gt;s11</title>
<path fill="none" stroke="black" d="M212.33,-627.11C217.74,-615 225.22,-598.26 231.44,-584.36"/>
<polygon fill="black" stroke="black" points="234.81,-585.39 235.7,-574.83 228.42,-582.54 234.81,-585.39"/>
<text text-anchor="middle" x="230.5" y="-597.3" font-family="Times,serif" font-size="14.00">c</text>
</g>
<!-- s16 -->
<g id="node19" class="node">
<title>s16</title>
<ellipse fill="none" stroke="black" cx="99" cy="-557.5" rx="27" ry="18"/>
<text text-anchor="middle" x="99" y="-553.8" font-family="Times,serif" font-size="14.00">s16</text>
</g>
<!-- s14&#45;&gt;s16 -->
<g id="edge21" class="edge">
<title>s14&#45;&gt;s16</title>
<path fill="none" stroke="black" d="M119.06,-626.7C115.57,-614.83 110.81,-598.66 106.81,-585.05"/>
<polygon fill="black" stroke="black" points="110.11,-583.86 103.93,-575.25 103.39,-585.84 110.11,-583.86"/>
<text text-anchor="middle" x="116.5" y="-597.3" font-family="Times,serif" font-size="14.00">ε</text>
</g>
<!-- s18 -->
<g id="node20" class="node">
<title>s18</title>
<ellipse fill="none" stroke="black" cx="171" cy="-557.5" rx="27" ry="18"/>
<text text-anchor="middle" x="171" y="-553.8" font-family="Times,serif" font-size="14.00">s18</text>
</g>
<!-- s14&#45;&gt;s18 -->
<g id="edge22" class="edge">
<title>s14&#45;&gt;s18</title>
<path fill="none" stroke="black" d="M133.06,-627.11C139.87,-614.8 149.31,-597.72 157.07,-583.68"/>
<polygon fill="black" stroke="black" points="160.35,-584.99 162.13,-574.55 154.22,-581.6 160.35,-584.99"/>
<text text-anchor="middle" x="154.5" y="-597.3" font-family="Times,serif" font-size="14.00">ε</text>
</g>
<!-- s20 -->
<g id="node21" class="node">
<title>s20</title>
<ellipse fill="none" stroke="black" cx="27" cy="-557.5" rx="27" ry="18"/>
<text text-anchor="middle" x="27" y="-553.8" font-family="Times,serif" font-size="14.00">s20</text>
</g>
<!-- s14&#45;&gt;s20 -->
<g id="edge23" class="edge">
<title>s14&#45;&gt;s20</title>
<path fill="none" stroke="black" d="M107.98,-629.46C92.3,-615.72 68.24,-594.64 50.42,-579.02"/>
<polygon fill="black" stroke="black" points="52.55,-576.23 42.72,-572.27 47.93,-581.49 52.55,-576.23"/>
<text text-anchor="middle" x="85.5" y="-597.3" font-family="Times,serif" font-size="14.00">ε</text>
</g>
<!-- s9 -->
<g id="node15" class="node">
<title>s9</title>
<ellipse fill="none" stroke="black" cx="243" cy="-296.5" rx="27" ry="18"/>
<text text-anchor="middle" x="243" y="-292.8" font-family="Times,serif" font-size="14.00">s9</text>
</g>
<!-- s9&#45;&gt;s1 -->
<g id="edge16" class="edge">
<title>s9&#45;&gt;s1</title>
<path fill="none" stroke="black" d="M260.82,-282.77C280.71,-268.56 313.09,-245.43 335.86,-229.17"/>
<polygon fill="black" stroke="black" points="337.96,-231.97 344.06,-223.31 333.89,-226.27 337.96,-231.97"/>
<text text-anchor="middle" x="312.5" y="-249.3" font-family="Times,serif" font-size="14.00">ε</text>
</g>
<!-- s12 -->
<g id="node17" class="node">
<title>s12</title>
<ellipse fill="none" stroke="black" cx="243" cy="-470.5" rx="27" ry="18"/>
<text text-anchor="middle" x="243" y="-466.8" font-family="Times,serif" font-size="14.00">s12</text>
</g>
<!-- s11&#45;&gt;s12 -->
<g id="edge18" class="edge">
<title>s11&#45;&gt;s12</title>
<path fill="none" stroke="black" d="M243,-539.29C243,-527.66 243,-512.04 243,-498.73"/>
<polygon fill="black" stroke="black" points="246.5,-498.67 243,-488.67 239.5,-498.67 246.5,-498.67"/>
<text text-anchor="middle" x="246.5" y="-510.3" font-family="Times,serif" font-size="14.00">ε</text>
</g>
<!-- s13 -->
<g id="node18" class="node">
<title>s13</title>
<ellipse fill="none" stroke="black" cx="243" cy="-383.5" rx="27" ry="18"/>
<text text-anchor="middle" x="243" y="-379.8" font-family="Times,serif" font-size="14.00">s13</text>
</g>
<!-- s12&#45;&gt;s13 -->
<g id="edge19" class="edge">
<title>s12&#45;&gt;s13</title>
<path fill="none" stroke="black" d="M243,-452.29C243,-440.66 243,-425.04 243,-411.73"/>
<polygon fill="black" stroke="black" points="246.5,-411.67 243,-401.67 239.5,-411.67 246.5,-411.67"/>
<text text-anchor="middle" x="247" y="-423.3" font-family="Times,serif" font-size="14.00">d</text>
</g>
<!-- s13&#45;&gt;s9 -->
<g id="edge20" class="edge">
<title>s13&#45;&gt;s9</title>
<path fill="none" stroke="black" d="M243,-365.29C243,-353.66 243,-338.04 243,-324.73"/>
<polygon fill="black" stroke="black" points="246.5,-324.67 243,-314.67 239.5,-324.67 246.5,-324.67"/>
<text text-anchor="middle" x="246.5" y="-336.3" font-family="Times,serif" font-size="14.00">ε</text>
</g>
<!-- s17 -->
<g id="node23" class="node">
<title>s17</title>
<ellipse fill="none" stroke="black" cx="99" cy="-470.5" rx="27" ry="18"/>
<text text-anchor="middle" x="99" y="-466.8" font-family="Times,serif" font-size="14.00">s17</text>
</g>
<!-- s16&#45;&gt;s17 -->
<g id="edge25" class="edge">
<title>s16&#45;&gt;s17</title>
<path fill="none" stroke="black" d="M99,-539.29C99,-527.66 99,-512.04 99,-498.73"/>
<polygon fill="black" stroke="black" points="102.5,-498.67 99,-488.67 95.5,-498.67 102.5,-498.67"/>
<text text-anchor="middle" x="102.5" y="-510.3" font-family="Times,serif" font-size="14.00">e</text>
</g>
<!-- s19 -->
<g id="node24" class="node">
<title>s19</title>
<ellipse fill="none" stroke="black" cx="171" cy="-470.5" rx="27" ry="18"/>
<text text-anchor="middle" x="171" y="-466.8" font-family="Times,serif" font-size="14.00">s19</text>
</g>
<!-- s18&#45;&gt;s19 -->
<g id="edge27" class="edge">
<title>s18&#45;&gt;s19</title>
<path fill="none" stroke="black" d="M171,-539.29C171,-527.66 171,-512.04 171,-498.73"/>
<polygon fill="black" stroke="black" points="174.5,-498.67 171,-488.67 167.5,-498.67 174.5,-498.67"/>
<text text-anchor="middle" x="174.5" y="-510.3" font-family="Times,serif" font-size="14.00">g</text>
</g>
<!-- s21 -->
<g id="node25" class="node">
<title>s21</title>
<ellipse fill="none" stroke="black" cx="27" cy="-470.5" rx="27" ry="18"/>
<text text-anchor="middle" x="27" y="-466.8" font-family="Times,serif" font-size="14.00">s21</text>
</g>
<!-- s20&#45;&gt;s21 -->
<g id="edge29" class="edge">
<title>s20&#45;&gt;s21</title>
<path fill="none" stroke="black" d="M27,-539.29C27,-527.66 27,-512.04 27,-498.73"/>
<polygon fill="black" stroke="black" points="30.5,-498.67 27,-488.67 23.5,-498.67 30.5,-498.67"/>
<text text-anchor="middle" x="31" y="-510.3" font-family="Times,serif" font-size="14.00">h</text>
</g>
<!-- s15 -->
<g id="node22" class="node">
<title>s15</title>
<ellipse fill="none" stroke="black" cx="130" cy="-383.5" rx="27" ry="18"/>
<text text-anchor="middle" x="130" y="-379.8" font-family="Times,serif" font-size="14.00">s15</text>
</g>
<!-- s15&#45;&gt;s9 -->
<g id="edge24" class="edge">
<title>s15&#45;&gt;s9</title>
<path fill="none" stroke="black" d="M147.16,-369.59C165.91,-355.48 196.14,-332.75 217.63,-316.58"/>
<polygon fill="black" stroke="black" points="219.79,-319.34 225.68,-310.53 215.58,-313.74 219.79,-319.34"/>
<text text-anchor="middle" x="197.5" y="-336.3" font-family="Times,serif" font-size="14.00">ε</text>
</g>
<!-- s17&#45;&gt;s15 -->
<g id="edge26" class="edge">
<title>s17&#45;&gt;s15</title>
<path fill="none" stroke="black" d="M105.12,-452.7C109.5,-440.71 115.47,-424.35 120.46,-410.65"/>
<polygon fill="black" stroke="black" points="123.75,-411.85 123.89,-401.25 117.17,-409.45 123.75,-411.85"/>
<text text-anchor="middle" x="120.5" y="-423.3" font-family="Times,serif" font-size="14.00">ε</text>
</g>
<!-- s19&#45;&gt;s15 -->
<g id="edge28" class="edge">
<title>s19&#45;&gt;s15</title>
<path fill="none" stroke="black" d="M163.09,-453.11C157.2,-440.88 149.03,-423.94 142.28,-409.95"/>
<polygon fill="black" stroke="black" points="145.38,-408.32 137.88,-400.83 139.07,-411.36 145.38,-408.32"/>
<text text-anchor="middle" x="156.5" y="-423.3" font-family="Times,serif" font-size="14.00">ε</text>
</g>
<!-- s21&#45;&gt;s15 -->
<g id="edge30" class="edge">
<title>s21&#45;&gt;s15</title>
<path fill="none" stroke="black" d="M43.55,-455.84C60.37,-441.96 86.6,-420.31 105.76,-404.5"/>
<polygon fill="black" stroke="black" points="108.01,-407.18 113.49,-398.12 103.55,-401.78 108.01,-407.18"/>
<text text-anchor="middle" x="88.5" y="-423.3" font-family="Times,serif" font-size="14.00">ε</text>
</g>
</g>
</svg>
