<?xml version="1.0" encoding="UTF-8" standalone="no"?>
<!DOCTYPE svg PUBLIC "-//W3C//DTD SVG 1.1//EN"
 "http://www.w3.org/Graphics/SVG/1.1/DTD/svg11.dtd">
<!-- Generated by graphviz version 2.50.0 (0)
 -->
<!-- Title: NFA_Graph Pages: 1 -->
<svg width="350pt" height="833pt"
 viewBox="0.00 0.00 350.20 832.90" xmlns="http://www.w3.org/2000/svg" xmlns:xlink="http://www.w3.org/1999/xlink">
<g id="graph0" class="graph" transform="scale(1 1) rotate(0) translate(4 828.9)">
<title>NFA_Graph</title>
<polygon fill="white" stroke="transparent" points="-4,4 -4,-828.9 346.2,-828.9 346.2,4 -4,4"/>
<text text-anchor="middle" x="145.5" y="-809.7" font-family="Times,serif" font-size="14.00">regexp = ((a|b)|(cd|(ef|g|hij(kl|(m|n)))))[[:digit:]]z</text>
<!-- s_d0 -->
<g id="node1" class="node">
<title>s_d0</title>
<ellipse fill="none" stroke="black" cx="141" cy="-31.95" rx="27.9" ry="27.9"/>
<ellipse fill="none" stroke="black" cx="141" cy="-31.95" rx="31.9" ry="31.9"/>
<text text-anchor="middle" x="141" y="-28.25" font-family="Times,serif" font-size="14.00">s_d0</text>
</g>
<!-- s_start -->
<!-- s_be0 -->
<g id="node3" class="node">
<title>s_be0</title>
<ellipse fill="none" stroke="black" cx="97" cy="-696.9" rx="31.7" ry="18"/>
<text text-anchor="middle" x="97" y="-693.2" font-family="Times,serif" font-size="14.00">s_be0</text>
</g>
<!-- s_start&#45;&gt;s_be0 -->
<g id="edge1" class="edge">
<title>s_start&#45;&gt;s_be0</title>
<path fill="none" stroke="black" d="M97,-765.69C97,-754.06 97,-738.44 97,-725.13"/>
<polygon fill="black" stroke="black" points="100.5,-725.07 97,-715.07 93.5,-725.07 100.5,-725.07"/>
<text text-anchor="middle" x="110.5" y="-736.7" font-family="Times,serif" font-size="14.00">start</text>
</g>
<!-- s_c40 -->
<g id="node4" class="node">
<title>s_c40</title>
<ellipse fill="none" stroke="black" cx="141" cy="-219.9" rx="31.4" ry="18"/>
<text text-anchor="middle" x="141" y="-216.2" font-family="Times,serif" font-size="14.00">s_c40</text>
</g>
<!-- s_be0&#45;&gt;s_c40 -->
<g id="edge2" class="edge">
<title>s_be0&#45;&gt;s_c40</title>
<path fill="none" stroke="black" d="M69.33,-687.67C54.41,-682.09 36.53,-673.41 24,-660.9 6.57,-643.47 0,-635.54 0,-610.9 0,-610.9 0,-610.9 0,-305.9 0,-281.25 5.26,-271.91 24,-255.9 45.23,-237.76 75.58,-229.02 100.04,-224.81"/>
<polygon fill="black" stroke="black" points="100.77,-228.24 110.13,-223.27 99.71,-221.32 100.77,-228.24"/>
<text text-anchor="middle" x="3.5" y="-444.2" font-family="Times,serif" font-size="14.00">a</text>
</g>
<!-- s_be0&#45;&gt;s_c40 -->
<g id="edge5" class="edge">
<title>s_be0&#45;&gt;s_c40</title>
<path fill="none" stroke="black" d="M78.98,-681.7C61.63,-666.3 38,-640 38,-610.9 38,-610.9 38,-610.9 38,-305.9 38,-281.25 44.31,-273.06 62,-255.9 73.46,-244.78 89.05,-236.86 103.35,-231.39"/>
<polygon fill="black" stroke="black" points="104.71,-234.62 112.98,-227.99 102.38,-228.02 104.71,-234.62"/>
<text text-anchor="middle" x="42" y="-444.2" font-family="Times,serif" font-size="14.00">b</text>
</g>
<!-- s_be0&#45;&gt;s_c40 -->
<g id="edge10" class="edge">
<title>s_be0&#45;&gt;s_c40</title>
<path fill="none" stroke="black" d="M90.36,-679.26C84.2,-662.34 76,-635.22 76,-610.9 76,-610.9 76,-610.9 76,-305.9 76,-279.47 96.06,-256.18 113.89,-240.69"/>
<polygon fill="black" stroke="black" points="116.35,-243.19 121.85,-234.13 111.9,-237.79 116.35,-243.19"/>
<text text-anchor="middle" x="79.5" y="-444.2" font-family="Times,serif" font-size="14.00">g</text>
</g>
<!-- s_270 -->
<g id="node6" class="node">
<title>s_270</title>
<ellipse fill="none" stroke="black" cx="123" cy="-555.9" rx="31.7" ry="18"/>
<text text-anchor="middle" x="123" y="-552.2" font-family="Times,serif" font-size="14.00">s_270</text>
</g>
<!-- s_be0&#45;&gt;s_270 -->
<g id="edge6" class="edge">
<title>s_be0&#45;&gt;s_270</title>
<path fill="none" stroke="black" d="M100.19,-678.85C104.61,-655.2 112.66,-612.16 117.92,-584.05"/>
<polygon fill="black" stroke="black" points="121.39,-584.55 119.79,-574.08 114.51,-583.26 121.39,-584.55"/>
<text text-anchor="middle" x="110.5" y="-649.7" font-family="Times,serif" font-size="14.00">c</text>
</g>
<!-- s_670 -->
<g id="node7" class="node">
<title>s_670</title>
<ellipse fill="none" stroke="black" cx="170" cy="-447.9" rx="31.7" ry="18"/>
<text text-anchor="middle" x="170" y="-444.2" font-family="Times,serif" font-size="14.00">s_670</text>
</g>
<!-- s_be0&#45;&gt;s_670 -->
<g id="edge8" class="edge">
<title>s_be0&#45;&gt;s_670</title>
<path fill="none" stroke="black" d="M107.27,-679.76C110.84,-673.91 114.75,-667.19 118,-660.9 137.34,-623.39 145.08,-614.65 156,-573.9 164.8,-541.04 168.07,-501.9 169.29,-476.27"/>
<polygon fill="black" stroke="black" points="172.79,-476.31 169.69,-466.18 165.8,-476.03 172.79,-476.31"/>
<text text-anchor="middle" x="154.5" y="-606.2" font-family="Times,serif" font-size="14.00">e</text>
</g>
<!-- s_c10 -->
<g id="node8" class="node">
<title>s_c10</title>
<ellipse fill="none" stroke="black" cx="229" cy="-609.9" rx="31.4" ry="18"/>
<text text-anchor="middle" x="229" y="-606.2" font-family="Times,serif" font-size="14.00">s_c10</text>
</g>
<!-- s_be0&#45;&gt;s_c10 -->
<g id="edge11" class="edge">
<title>s_be0&#45;&gt;s_c10</title>
<path fill="none" stroke="black" d="M125.26,-688.14C143.12,-682.4 166.12,-673.4 184,-660.9 194.11,-653.82 203.54,-644.07 211.13,-635.06"/>
<polygon fill="black" stroke="black" points="214.01,-637.07 217.55,-627.08 208.55,-632.68 214.01,-637.07"/>
<text text-anchor="middle" x="205" y="-649.7" font-family="Times,serif" font-size="14.00">h</text>
</g>
<!-- s_ef0 -->
<g id="node5" class="node">
<title>s_ef0</title>
<ellipse fill="none" stroke="black" cx="141" cy="-132.9" rx="29.8" ry="18"/>
<text text-anchor="middle" x="141" y="-129.2" font-family="Times,serif" font-size="14.00">s_ef0</text>
</g>
<!-- s_c40&#45;&gt;s_ef0 -->
<g id="edge3" class="edge">
<title>s_c40&#45;&gt;s_ef0</title>
<path fill="none" stroke="black" d="M141,-201.69C141,-190.06 141,-174.44 141,-161.13"/>
<polygon fill="black" stroke="black" points="144.5,-161.07 141,-151.07 137.5,-161.07 144.5,-161.07"/>
<text text-anchor="middle" x="175" y="-172.7" font-family="Times,serif" font-size="14.00">0123456789</text>
</g>
<!-- s_ef0&#45;&gt;s_d0 -->
<g id="edge4" class="edge">
<title>s_ef0&#45;&gt;s_d0</title>
<path fill="none" stroke="black" d="M141,-114.66C141,-103.43 141,-88.28 141,-74.07"/>
<polygon fill="black" stroke="black" points="144.5,-73.97 141,-63.97 137.5,-73.97 144.5,-73.97"/>
<text text-anchor="middle" x="144.5" y="-85.7" font-family="Times,serif" font-size="14.00">z</text>
</g>
<!-- s_270&#45;&gt;s_c40 -->
<g id="edge7" class="edge">
<title>s_270&#45;&gt;s_c40</title>
<path fill="none" stroke="black" d="M122.74,-537.64C122.44,-516.66 122,-480.18 122,-448.9 122,-448.9 122,-448.9 122,-305.9 122,-285.86 127.09,-263.79 132,-247.17"/>
<polygon fill="black" stroke="black" points="135.35,-248.17 134.99,-237.58 128.67,-246.09 135.35,-248.17"/>
<text text-anchor="middle" x="126" y="-390.2" font-family="Times,serif" font-size="14.00">d</text>
</g>
<!-- s_670&#45;&gt;s_c40 -->
<g id="edge9" class="edge">
<title>s_670&#45;&gt;s_c40</title>
<path fill="none" stroke="black" d="M167.82,-429.91C162.83,-391.05 150.56,-295.41 144.5,-248.18"/>
<polygon fill="black" stroke="black" points="147.95,-247.55 143.21,-238.08 141.01,-248.44 147.95,-247.55"/>
<text text-anchor="middle" x="161.5" y="-346.7" font-family="Times,serif" font-size="14.00">f</text>
</g>
<!-- s_df0 -->
<g id="node9" class="node">
<title>s_df0</title>
<ellipse fill="none" stroke="black" cx="232" cy="-501.9" rx="30.59" ry="18"/>
<text text-anchor="middle" x="232" y="-498.2" font-family="Times,serif" font-size="14.00">s_df0</text>
</g>
<!-- s_c10&#45;&gt;s_df0 -->
<g id="edge12" class="edge">
<title>s_c10&#45;&gt;s_df0</title>
<path fill="none" stroke="black" d="M229.48,-591.86C229.95,-575.27 230.67,-549.78 231.22,-530.33"/>
<polygon fill="black" stroke="black" points="234.72,-530.33 231.51,-520.24 227.73,-530.13 234.72,-530.33"/>
<text text-anchor="middle" x="233" y="-552.2" font-family="Times,serif" font-size="14.00">i</text>
</g>
<!-- s_fd0 -->
<g id="node10" class="node">
<title>s_fd0</title>
<ellipse fill="none" stroke="black" cx="242" cy="-393.9" rx="30.59" ry="18"/>
<text text-anchor="middle" x="242" y="-390.2" font-family="Times,serif" font-size="14.00">s_fd0</text>
</g>
<!-- s_df0&#45;&gt;s_fd0 -->
<g id="edge13" class="edge">
<title>s_df0&#45;&gt;s_fd0</title>
<path fill="none" stroke="black" d="M233.61,-483.86C235.18,-467.17 237.61,-441.47 239.44,-421.98"/>
<polygon fill="black" stroke="black" points="242.94,-422.17 240.4,-411.88 235.97,-421.51 242.94,-422.17"/>
<text text-anchor="middle" x="241" y="-444.2" font-family="Times,serif" font-size="14.00">j</text>
</g>
<!-- s_fd0&#45;&gt;s_c40 -->
<g id="edge16" class="edge">
<title>s_fd0&#45;&gt;s_c40</title>
<path fill="none" stroke="black" d="M235.52,-375.99C224.84,-349.22 201.92,-295.99 174,-255.9 170.98,-251.55 167.43,-247.21 163.8,-243.15"/>
<polygon fill="black" stroke="black" points="166.23,-240.62 156.84,-235.72 161.12,-245.41 166.23,-240.62"/>
<text text-anchor="middle" x="219" y="-303.2" font-family="Times,serif" font-size="14.00">m</text>
</g>
<!-- s_fd0&#45;&gt;s_c40 -->
<g id="edge17" class="edge">
<title>s_fd0&#45;&gt;s_c40</title>
<path fill="none" stroke="black" d="M243.6,-375.87C244.83,-354.24 244.26,-316.43 229,-288.9 216.48,-266.3 193,-248.74 173.45,-237.14"/>
<polygon fill="black" stroke="black" points="174.94,-233.96 164.51,-232.07 171.49,-240.05 174.94,-233.96"/>
<text text-anchor="middle" x="245" y="-303.2" font-family="Times,serif" font-size="14.00">n</text>
</g>
<!-- s_1e0 -->
<g id="node11" class="node">
<title>s_1e0</title>
<ellipse fill="none" stroke="black" cx="311" cy="-306.9" rx="31.4" ry="18"/>
<text text-anchor="middle" x="311" y="-303.2" font-family="Times,serif" font-size="14.00">s_1e0</text>
</g>
<!-- s_fd0&#45;&gt;s_1e0 -->
<g id="edge14" class="edge">
<title>s_fd0&#45;&gt;s_1e0</title>
<path fill="none" stroke="black" d="M254.66,-377.3C265.06,-364.48 279.98,-346.11 291.84,-331.49"/>
<polygon fill="black" stroke="black" points="294.84,-333.36 298.42,-323.39 289.4,-328.94 294.84,-333.36"/>
<text text-anchor="middle" x="284" y="-346.7" font-family="Times,serif" font-size="14.00">k</text>
</g>
<!-- s_1e0&#45;&gt;s_c40 -->
<g id="edge15" class="edge">
<title>s_1e0&#45;&gt;s_c40</title>
<path fill="none" stroke="black" d="M300.85,-289.68C293.13,-278.62 281.54,-264.47 268,-255.9 241.82,-239.31 207.77,-230.47 181.52,-225.83"/>
<polygon fill="black" stroke="black" points="181.95,-222.36 171.51,-224.2 180.82,-229.27 181.95,-222.36"/>
<text text-anchor="middle" x="286" y="-259.7" font-family="Times,serif" font-size="14.00">l</text>
</g>
</g>
</svg>
