<?xml version="1.0" encoding="UTF-8" standalone="no"?>
<!DOCTYPE svg PUBLIC "-//W3C//DTD SVG 1.1//EN"
 "http://www.w3.org/Graphics/SVG/1.1/DTD/svg11.dtd">
<!-- Generated by graphviz version 2.50.0 (0)
 -->
<!-- Title: NFA_Graph Pages: 1 -->
<svg width="231pt" height="820pt"
 viewBox="0.00 0.00 231.04 819.69" xmlns="http://www.w3.org/2000/svg" xmlns:xlink="http://www.w3.org/1999/xlink">
<g id="graph0" class="graph" transform="scale(1 1) rotate(0) translate(4 815.69)">
<title>NFA_Graph</title>
<polygon fill="white" stroke="transparent" points="-4,4 -4,-815.69 227.04,-815.69 227.04,4 -4,4"/>
<text text-anchor="middle" x="89" y="-796.49" font-family="Times,serif" font-size="14.00">regexp = ((a|b)|cd)[[:digit:]]e</text>
<!-- s_940 -->
<g id="node1" class="node">
<title>s_940</title>
<ellipse fill="none" stroke="black" cx="149.85" cy="-35.85" rx="31.71" ry="31.71"/>
<ellipse fill="none" stroke="black" cx="149.85" cy="-35.85" rx="35.69" ry="35.69"/>
<text text-anchor="middle" x="149.85" y="-32.15" font-family="Times,serif" font-size="14.00">s_940</text>
</g>
<!-- s_start -->
<!-- s_a0 -->
<g id="node3" class="node">
<title>s_a0</title>
<ellipse fill="none" stroke="black" cx="151.85" cy="-683.69" rx="27.1" ry="18"/>
<text text-anchor="middle" x="151.85" y="-679.99" font-family="Times,serif" font-size="14.00">s_a0</text>
</g>
<!-- s_start&#45;&gt;s_a0 -->
<g id="edge1" class="edge">
<title>s_start&#45;&gt;s_a0</title>
<path fill="none" stroke="black" d="M151.85,-752.49C151.85,-740.86 151.85,-725.24 151.85,-711.93"/>
<polygon fill="black" stroke="black" points="155.35,-711.87 151.85,-701.87 148.35,-711.87 155.35,-711.87"/>
<text text-anchor="middle" x="165.35" y="-723.49" font-family="Times,serif" font-size="14.00">start</text>
</g>
<!-- s_7a0 -->
<g id="node4" class="node">
<title>s_7a0</title>
<ellipse fill="none" stroke="black" cx="111.85" cy="-596.69" rx="31.7" ry="18"/>
<text text-anchor="middle" x="111.85" y="-592.99" font-family="Times,serif" font-size="14.00">s_7a0</text>
</g>
<!-- s_a0&#45;&gt;s_7a0 -->
<g id="edge2" class="edge">
<title>s_a0&#45;&gt;s_7a0</title>
<path fill="none" stroke="black" d="M144.13,-666.31C138.42,-654.15 130.51,-637.35 123.95,-623.42"/>
<polygon fill="black" stroke="black" points="127.1,-621.88 119.67,-614.32 120.76,-624.86 127.1,-621.88"/>
<text text-anchor="middle" x="138.35" y="-636.49" font-family="Times,serif" font-size="14.00">ε</text>
</g>
<!-- s_ce0 -->
<g id="node12" class="node">
<title>s_ce0</title>
<ellipse fill="none" stroke="black" cx="191.85" cy="-596.69" rx="30.59" ry="18"/>
<text text-anchor="middle" x="191.85" y="-592.99" font-family="Times,serif" font-size="14.00">s_ce0</text>
</g>
<!-- s_a0&#45;&gt;s_ce0 -->
<g id="edge12" class="edge">
<title>s_a0&#45;&gt;s_ce0</title>
<path fill="none" stroke="black" d="M159.56,-666.31C165.28,-654.15 173.18,-637.35 179.74,-623.42"/>
<polygon fill="black" stroke="black" points="182.93,-624.86 184.02,-614.32 176.6,-621.88 182.93,-624.86"/>
<text text-anchor="middle" x="177.35" y="-636.49" font-family="Times,serif" font-size="14.00">ε</text>
</g>
<!-- s_3e0 -->
<g id="node5" class="node">
<title>s_3e0</title>
<ellipse fill="none" stroke="black" cx="31.85" cy="-509.69" rx="31.4" ry="18"/>
<text text-anchor="middle" x="31.85" y="-505.99" font-family="Times,serif" font-size="14.00">s_3e0</text>
</g>
<!-- s_7a0&#45;&gt;s_3e0 -->
<g id="edge3" class="edge">
<title>s_7a0&#45;&gt;s_3e0</title>
<path fill="none" stroke="black" d="M97.54,-580.5C85.14,-567.32 67.03,-548.08 52.96,-533.13"/>
<polygon fill="black" stroke="black" points="55.43,-530.64 46.03,-525.76 50.33,-535.44 55.43,-530.64"/>
<text text-anchor="middle" x="80.35" y="-549.49" font-family="Times,serif" font-size="14.00">ε</text>
</g>
<!-- s_5c0 -->
<g id="node10" class="node">
<title>s_5c0</title>
<ellipse fill="none" stroke="black" cx="111.85" cy="-509.69" rx="31.4" ry="18"/>
<text text-anchor="middle" x="111.85" y="-505.99" font-family="Times,serif" font-size="14.00">s_5c0</text>
</g>
<!-- s_7a0&#45;&gt;s_5c0 -->
<g id="edge9" class="edge">
<title>s_7a0&#45;&gt;s_5c0</title>
<path fill="none" stroke="black" d="M111.85,-578.49C111.85,-566.86 111.85,-551.24 111.85,-537.93"/>
<polygon fill="black" stroke="black" points="115.35,-537.87 111.85,-527.87 108.35,-537.87 115.35,-537.87"/>
<text text-anchor="middle" x="115.35" y="-549.49" font-family="Times,serif" font-size="14.00">ε</text>
</g>
<!-- s_560 -->
<g id="node6" class="node">
<title>s_560</title>
<ellipse fill="none" stroke="black" cx="31.85" cy="-422.69" rx="31.7" ry="18"/>
<text text-anchor="middle" x="31.85" y="-418.99" font-family="Times,serif" font-size="14.00">s_560</text>
</g>
<!-- s_3e0&#45;&gt;s_560 -->
<g id="edge4" class="edge">
<title>s_3e0&#45;&gt;s_560</title>
<path fill="none" stroke="black" d="M31.85,-491.49C31.85,-479.86 31.85,-464.24 31.85,-450.93"/>
<polygon fill="black" stroke="black" points="35.35,-450.87 31.85,-440.87 28.35,-450.87 35.35,-450.87"/>
<text text-anchor="middle" x="35.35" y="-462.49" font-family="Times,serif" font-size="14.00">a</text>
</g>
<!-- s_800 -->
<g id="node7" class="node">
<title>s_800</title>
<ellipse fill="none" stroke="black" cx="113.85" cy="-314.69" rx="31.7" ry="18"/>
<text text-anchor="middle" x="113.85" y="-310.99" font-family="Times,serif" font-size="14.00">s_800</text>
</g>
<!-- s_560&#45;&gt;s_800 -->
<g id="edge5" class="edge">
<title>s_560&#45;&gt;s_800</title>
<path fill="none" stroke="black" d="M44.3,-405.6C57.87,-388.06 79.7,-359.83 95.29,-339.68"/>
<polygon fill="black" stroke="black" points="98.19,-341.65 101.54,-331.6 92.66,-337.37 98.19,-341.65"/>
<text text-anchor="middle" x="89.35" y="-364.99" font-family="Times,serif" font-size="14.00">ε</text>
</g>
<!-- s_100 -->
<g id="node8" class="node">
<title>s_100</title>
<ellipse fill="none" stroke="black" cx="149.85" cy="-227.69" rx="31.7" ry="18"/>
<text text-anchor="middle" x="149.85" y="-223.99" font-family="Times,serif" font-size="14.00">s_100</text>
</g>
<!-- s_800&#45;&gt;s_100 -->
<g id="edge6" class="edge">
<title>s_800&#45;&gt;s_100</title>
<path fill="none" stroke="black" d="M120.96,-296.9C126.04,-284.91 132.97,-268.55 138.77,-254.85"/>
<polygon fill="black" stroke="black" points="142.07,-256.03 142.75,-245.45 135.63,-253.3 142.07,-256.03"/>
<text text-anchor="middle" x="138.35" y="-267.49" font-family="Times,serif" font-size="14.00">ε</text>
</g>
<!-- s_760 -->
<g id="node9" class="node">
<title>s_760</title>
<ellipse fill="none" stroke="black" cx="149.85" cy="-140.69" rx="31.7" ry="18"/>
<text text-anchor="middle" x="149.85" y="-136.99" font-family="Times,serif" font-size="14.00">s_760</text>
</g>
<!-- s_100&#45;&gt;s_760 -->
<g id="edge7" class="edge">
<title>s_100&#45;&gt;s_760</title>
<path fill="none" stroke="black" d="M149.85,-209.49C149.85,-197.86 149.85,-182.24 149.85,-168.93"/>
<polygon fill="black" stroke="black" points="153.35,-168.87 149.85,-158.87 146.35,-168.87 153.35,-168.87"/>
<text text-anchor="middle" x="183.85" y="-180.49" font-family="Times,serif" font-size="14.00">0123456789</text>
</g>
<!-- s_760&#45;&gt;s_940 -->
<g id="edge8" class="edge">
<title>s_760&#45;&gt;s_940</title>
<path fill="none" stroke="black" d="M149.85,-122.25C149.85,-111.18 149.85,-96.31 149.85,-82.08"/>
<polygon fill="black" stroke="black" points="153.35,-81.9 149.85,-71.9 146.35,-81.9 153.35,-81.9"/>
<text text-anchor="middle" x="153.35" y="-93.49" font-family="Times,serif" font-size="14.00">e</text>
</g>
<!-- s_740 -->
<g id="node11" class="node">
<title>s_740</title>
<ellipse fill="none" stroke="black" cx="113.85" cy="-422.69" rx="31.7" ry="18"/>
<text text-anchor="middle" x="113.85" y="-418.99" font-family="Times,serif" font-size="14.00">s_740</text>
</g>
<!-- s_5c0&#45;&gt;s_740 -->
<g id="edge10" class="edge">
<title>s_5c0&#45;&gt;s_740</title>
<path fill="none" stroke="black" d="M112.25,-491.49C112.53,-479.86 112.89,-464.24 113.21,-450.93"/>
<polygon fill="black" stroke="black" points="116.71,-450.95 113.44,-440.87 109.71,-450.78 116.71,-450.95"/>
<text text-anchor="middle" x="117.85" y="-462.49" font-family="Times,serif" font-size="14.00">b</text>
</g>
<!-- s_740&#45;&gt;s_800 -->
<g id="edge11" class="edge">
<title>s_740&#45;&gt;s_800</title>
<path fill="none" stroke="black" d="M113.85,-404.66C113.85,-388.07 113.85,-362.58 113.85,-343.12"/>
<polygon fill="black" stroke="black" points="117.35,-343.03 113.85,-333.03 110.35,-343.03 117.35,-343.03"/>
<text text-anchor="middle" x="117.35" y="-364.99" font-family="Times,serif" font-size="14.00">ε</text>
</g>
<!-- s_e60 -->
<g id="node13" class="node">
<title>s_e60</title>
<ellipse fill="none" stroke="black" cx="191.85" cy="-509.69" rx="31.4" ry="18"/>
<text text-anchor="middle" x="191.85" y="-505.99" font-family="Times,serif" font-size="14.00">s_e60</text>
</g>
<!-- s_ce0&#45;&gt;s_e60 -->
<g id="edge13" class="edge">
<title>s_ce0&#45;&gt;s_e60</title>
<path fill="none" stroke="black" d="M191.85,-578.49C191.85,-566.86 191.85,-551.24 191.85,-537.93"/>
<polygon fill="black" stroke="black" points="195.35,-537.87 191.85,-527.87 188.35,-537.87 195.35,-537.87"/>
<text text-anchor="middle" x="195.35" y="-549.49" font-family="Times,serif" font-size="14.00">c</text>
</g>
<!-- s_40 -->
<g id="node14" class="node">
<title>s_40</title>
<ellipse fill="none" stroke="black" cx="188.85" cy="-368.69" rx="27.1" ry="18"/>
<text text-anchor="middle" x="188.85" y="-364.99" font-family="Times,serif" font-size="14.00">s_40</text>
</g>
<!-- s_e60&#45;&gt;s_40 -->
<g id="edge14" class="edge">
<title>s_e60&#45;&gt;s_40</title>
<path fill="none" stroke="black" d="M191.48,-491.65C190.97,-468.1 190.05,-425.33 189.44,-397.22"/>
<polygon fill="black" stroke="black" points="192.93,-396.8 189.22,-386.88 185.93,-396.95 192.93,-396.8"/>
<text text-anchor="middle" x="194.85" y="-462.49" font-family="Times,serif" font-size="14.00">d</text>
</g>
<!-- s_40&#45;&gt;s_100 -->
<g id="edge15" class="edge">
<title>s_40&#45;&gt;s_100</title>
<path fill="none" stroke="black" d="M184.14,-350.93C177.5,-327.24 165.29,-283.72 157.37,-255.51"/>
<polygon fill="black" stroke="black" points="160.64,-254.2 154.57,-245.52 153.9,-256.09 160.64,-254.2"/>
<text text-anchor="middle" x="182.35" y="-310.99" font-family="Times,serif" font-size="14.00">ε</text>
</g>
</g>
</svg>
