<?xml version="1.0" encoding="UTF-8" standalone="no"?>
<!DOCTYPE svg PUBLIC "-//W3C//DTD SVG 1.1//EN"
 "http://www.w3.org/Graphics/SVG/1.1/DTD/svg11.dtd">
<!-- Generated by graphviz version 2.50.0 (0)
 -->
<!-- Title: Regex_Relationship Pages: 1 -->
<svg width="953pt" height="679pt"
 viewBox="0.00 0.00 953.04 679.00" xmlns="http://www.w3.org/2000/svg" xmlns:xlink="http://www.w3.org/1999/xlink">
<g id="graph0" class="graph" transform="scale(1 1) rotate(0) translate(4 675)">
<title>Regex_Relationship</title>
<polygon fill="white" stroke="transparent" points="-4,4 -4,-675 949.04,-675 949.04,4 -4,4"/>
<text text-anchor="middle" x="119.5" y="-655.8" font-family="Times,serif" font-size="14.00">regexp = [[:digit:]tiny](&#45;regex|_Regex)*</text>
<!-- r0x602000000010 -->
<g id="node1" class="node">
<title>r0x602000000010</title>
<ellipse fill="none" stroke="black" stroke-width="2" cx="458.85" cy="-18" rx="31.4" ry="18"/>
<text text-anchor="middle" x="458.85" y="-14.3" font-family="Times,serif" font-size="14.00">re_10</text>
</g>
<!-- b0x602000000030 -->
<g id="node2" class="node">
<title>b0x602000000030</title>
<ellipse fill="none" stroke="black" cx="458.85" cy="-91" rx="32.49" ry="18"/>
<text text-anchor="middle" x="458.85" y="-87.3" font-family="Times,serif" font-size="14.00">br_30</text>
</g>
<!-- b0x602000000030&#45;&gt;r0x602000000010 -->
<g id="edge1" class="edge">
<title>b0x602000000030&#45;&gt;r0x602000000010</title>
<path fill="none" stroke="black" d="M458.85,-72.81C458.85,-64.79 458.85,-55.05 458.85,-46.07"/>
<polygon fill="black" stroke="black" points="462.35,-46.03 458.85,-36.03 455.35,-46.03 462.35,-46.03"/>
</g>
<!-- p0x602000000050 -->
<g id="node3" class="node">
<title>p0x602000000050</title>
<ellipse fill="none" stroke="black" stroke-dasharray="5,2" cx="419.85" cy="-164" rx="31.4" ry="18"/>
<text text-anchor="middle" x="419.85" y="-160.3" font-family="Times,serif" font-size="14.00">pi_50</text>
</g>
<!-- p0x602000000050&#45;&gt;b0x602000000030 -->
<g id="edge2" class="edge">
<title>p0x602000000050&#45;&gt;b0x602000000030</title>
<path fill="none" stroke="black" d="M428.89,-146.53C433.67,-137.84 439.63,-126.99 444.97,-117.26"/>
<polygon fill="black" stroke="black" points="448.1,-118.83 449.85,-108.38 441.97,-115.46 448.1,-118.83"/>
</g>
<!-- a0x612000000040 -->
<g id="node4" class="node">
<title>a0x612000000040</title>
<ellipse fill="none" stroke="black" stroke-dasharray="1,5" cx="419.85" cy="-251" rx="31.4" ry="18"/>
<text text-anchor="middle" x="419.85" y="-247.3" font-family="Times,serif" font-size="14.00">at_40</text>
</g>
<!-- a0x612000000040&#45;&gt;p0x602000000050 -->
<g id="edge3" class="edge">
<title>a0x612000000040&#45;&gt;p0x602000000050</title>
<path fill="none" stroke="black" d="M419.85,-232.8C419.85,-221.16 419.85,-205.55 419.85,-192.24"/>
<polygon fill="black" stroke="black" points="423.35,-192.18 419.85,-182.18 416.35,-192.18 423.35,-192.18"/>
<text text-anchor="middle" x="423.35" y="-203.8" font-family="Times,serif" font-size="14.00">1</text>
</g>
<!-- cs0x612000000040 -->
<g id="node5" class="node">
<title>cs0x612000000040</title>
<ellipse fill="lightgrey" stroke="black" cx="400.85" cy="-324" rx="69.59" ry="18"/>
<text text-anchor="middle" x="400.85" y="-320.3" font-family="Times,serif" font-size="14.00">0123456789inty</text>
</g>
<!-- cs0x612000000040&#45;&gt;a0x612000000040 -->
<g id="edge4" class="edge">
<title>cs0x612000000040&#45;&gt;a0x612000000040</title>
<path fill="none" stroke="black" d="M405.45,-305.81C407.62,-297.7 410.26,-287.84 412.68,-278.78"/>
<polygon fill="black" stroke="black" points="416.09,-279.59 415.29,-269.03 409.32,-277.78 416.09,-279.59"/>
</g>
<!-- p0x602000000070 -->
<g id="node6" class="node">
<title>p0x602000000070</title>
<ellipse fill="none" stroke="black" stroke-dasharray="5,2" cx="504.85" cy="-164" rx="31.4" ry="18"/>
<text text-anchor="middle" x="504.85" y="-160.3" font-family="Times,serif" font-size="14.00">pi_70</text>
</g>
<!-- p0x602000000070&#45;&gt;b0x602000000030 -->
<g id="edge5" class="edge">
<title>p0x602000000070&#45;&gt;b0x602000000030</title>
<path fill="none" stroke="black" d="M494.41,-146.89C488.73,-138.12 481.57,-127.07 475.17,-117.19"/>
<polygon fill="black" stroke="black" points="477.94,-115.03 469.56,-108.54 472.06,-118.84 477.94,-115.03"/>
</g>
<!-- a0x6120000001c0 -->
<g id="node7" class="node">
<title>a0x6120000001c0</title>
<ellipse fill="none" stroke="black" stroke-dasharray="1,5" cx="509.85" cy="-251" rx="30.59" ry="18"/>
<text text-anchor="middle" x="509.85" y="-247.3" font-family="Times,serif" font-size="14.00">at_c0</text>
</g>
<!-- a0x6120000001c0&#45;&gt;p0x602000000070 -->
<g id="edge6" class="edge">
<title>a0x6120000001c0&#45;&gt;p0x602000000070</title>
<path fill="none" stroke="black" d="M508.84,-232.8C508.15,-221.16 507.23,-205.55 506.45,-192.24"/>
<polygon fill="black" stroke="black" points="509.94,-191.95 505.86,-182.18 502.95,-192.36 509.94,-191.95"/>
<text text-anchor="middle" x="525.35" y="-203.8" font-family="Times,serif" font-size="14.00">0 &#45; inf</text>
</g>
<!-- r0x602000000090 -->
<g id="node8" class="node">
<title>r0x602000000090</title>
<ellipse fill="none" stroke="black" stroke-width="2" cx="519.85" cy="-324" rx="31.4" ry="18"/>
<text text-anchor="middle" x="519.85" y="-320.3" font-family="Times,serif" font-size="14.00">re_90</text>
</g>
<!-- r0x602000000090&#45;&gt;a0x6120000001c0 -->
<g id="edge7" class="edge">
<title>r0x602000000090&#45;&gt;a0x6120000001c0</title>
<path fill="none" stroke="black" d="M517.43,-305.81C516.3,-297.79 514.92,-288.05 513.66,-279.07"/>
<polygon fill="black" stroke="black" points="517.11,-278.44 512.25,-269.03 510.17,-279.42 517.11,-278.44"/>
</g>
<!-- b0x6020000000b0 -->
<g id="node9" class="node">
<title>b0x6020000000b0</title>
<ellipse fill="none" stroke="black" cx="271.85" cy="-397" rx="32.49" ry="18"/>
<text text-anchor="middle" x="271.85" y="-393.3" font-family="Times,serif" font-size="14.00">br_b0</text>
</g>
<!-- b0x6020000000b0&#45;&gt;r0x602000000090 -->
<g id="edge8" class="edge">
<title>b0x6020000000b0&#45;&gt;r0x602000000090</title>
<path fill="none" stroke="black" d="M301.88,-389.67C342.68,-380.74 417.68,-363.15 479.85,-342 482.08,-341.24 484.36,-340.41 486.64,-339.55"/>
<polygon fill="black" stroke="black" points="487.97,-342.79 495.96,-335.83 485.37,-336.29 487.97,-342.79"/>
</g>
<!-- p0x6020000000d0 -->
<g id="node10" class="node">
<title>p0x6020000000d0</title>
<ellipse fill="none" stroke="black" stroke-dasharray="5,2" cx="31.85" cy="-470" rx="31.7" ry="18"/>
<text text-anchor="middle" x="31.85" y="-466.3" font-family="Times,serif" font-size="14.00">pi_d0</text>
</g>
<!-- p0x6020000000d0&#45;&gt;b0x6020000000b0 -->
<g id="edge9" class="edge">
<title>p0x6020000000d0&#45;&gt;b0x6020000000b0</title>
<path fill="none" stroke="black" d="M56.54,-458.44C62.18,-456.19 68.18,-453.91 73.85,-452 128.04,-433.71 192.12,-417.13 232.38,-407.3"/>
<polygon fill="black" stroke="black" points="233.44,-410.65 242.33,-404.89 231.79,-403.84 233.44,-410.65"/>
</g>
<!-- a0x612000000340 -->
<g id="node11" class="node">
<title>a0x612000000340</title>
<ellipse fill="none" stroke="black" stroke-dasharray="1,5" cx="31.85" cy="-557" rx="31.4" ry="18"/>
<text text-anchor="middle" x="31.85" y="-553.3" font-family="Times,serif" font-size="14.00">at_40</text>
</g>
<!-- a0x612000000340&#45;&gt;p0x6020000000d0 -->
<g id="edge10" class="edge">
<title>a0x612000000340&#45;&gt;p0x6020000000d0</title>
<path fill="none" stroke="black" d="M31.85,-538.8C31.85,-527.16 31.85,-511.55 31.85,-498.24"/>
<polygon fill="black" stroke="black" points="35.35,-498.18 31.85,-488.18 28.35,-498.18 35.35,-498.18"/>
<text text-anchor="middle" x="35.35" y="-509.8" font-family="Times,serif" font-size="14.00">1</text>
</g>
<!-- cs0x612000000340 -->
<g id="node12" class="node">
<title>cs0x612000000340</title>
<ellipse fill="lightgrey" stroke="black" cx="31.85" cy="-630" rx="27" ry="18"/>
<text text-anchor="middle" x="31.85" y="-626.3" font-family="Times,serif" font-size="14.00">&#45;</text>
</g>
<!-- cs0x612000000340&#45;&gt;a0x612000000340 -->
<g id="edge11" class="edge">
<title>cs0x612000000340&#45;&gt;a0x612000000340</title>
<path fill="none" stroke="black" d="M31.85,-611.81C31.85,-603.79 31.85,-594.05 31.85,-585.07"/>
<polygon fill="black" stroke="black" points="35.35,-585.03 31.85,-575.03 28.35,-585.03 35.35,-585.03"/>
</g>
<!-- p0x6020000000f0 -->
<g id="node13" class="node">
<title>p0x6020000000f0</title>
<ellipse fill="none" stroke="black" stroke-dasharray="5,2" cx="112.85" cy="-470" rx="29.8" ry="18"/>
<text text-anchor="middle" x="112.85" y="-466.3" font-family="Times,serif" font-size="14.00">pi_f0</text>
</g>
<!-- p0x6020000000f0&#45;&gt;b0x6020000000b0 -->
<g id="edge12" class="edge">
<title>p0x6020000000f0&#45;&gt;b0x6020000000b0</title>
<path fill="none" stroke="black" d="M136.31,-458.52C163.12,-446.55 207.24,-426.85 237.83,-413.19"/>
<polygon fill="black" stroke="black" points="239.54,-416.26 247.24,-408.99 236.69,-409.87 239.54,-416.26"/>
</g>
<!-- a0x6120000004c0 -->
<g id="node14" class="node">
<title>a0x6120000004c0</title>
<ellipse fill="none" stroke="black" stroke-dasharray="1,5" cx="111.85" cy="-557" rx="30.59" ry="18"/>
<text text-anchor="middle" x="111.85" y="-553.3" font-family="Times,serif" font-size="14.00">at_c0</text>
</g>
<!-- a0x6120000004c0&#45;&gt;p0x6020000000f0 -->
<g id="edge13" class="edge">
<title>a0x6120000004c0&#45;&gt;p0x6020000000f0</title>
<path fill="none" stroke="black" d="M112.05,-538.8C112.19,-527.16 112.37,-511.55 112.53,-498.24"/>
<polygon fill="black" stroke="black" points="116.03,-498.22 112.65,-488.18 109.03,-498.13 116.03,-498.22"/>
<text text-anchor="middle" x="116.35" y="-509.8" font-family="Times,serif" font-size="14.00">1</text>
</g>
<!-- cs0x6120000004c0 -->
<g id="node15" class="node">
<title>cs0x6120000004c0</title>
<ellipse fill="lightgrey" stroke="black" cx="111.85" cy="-630" rx="27" ry="18"/>
<text text-anchor="middle" x="111.85" y="-626.3" font-family="Times,serif" font-size="14.00">r</text>
</g>
<!-- cs0x6120000004c0&#45;&gt;a0x6120000004c0 -->
<g id="edge14" class="edge">
<title>cs0x6120000004c0&#45;&gt;a0x6120000004c0</title>
<path fill="none" stroke="black" d="M111.85,-611.81C111.85,-603.79 111.85,-594.05 111.85,-585.07"/>
<polygon fill="black" stroke="black" points="115.35,-585.03 111.85,-575.03 108.35,-585.03 115.35,-585.03"/>
</g>
<!-- p0x602000000110 -->
<g id="node16" class="node">
<title>p0x602000000110</title>
<ellipse fill="none" stroke="black" stroke-dasharray="5,2" cx="191.85" cy="-470" rx="31.4" ry="18"/>
<text text-anchor="middle" x="191.85" y="-466.3" font-family="Times,serif" font-size="14.00">pi_10</text>
</g>
<!-- p0x602000000110&#45;&gt;b0x6020000000b0 -->
<g id="edge15" class="edge">
<title>p0x602000000110&#45;&gt;b0x6020000000b0</title>
<path fill="none" stroke="black" d="M208.42,-454.29C219.79,-444.2 235.06,-430.65 247.77,-419.37"/>
<polygon fill="black" stroke="black" points="250.14,-421.95 255.29,-412.69 245.49,-416.71 250.14,-421.95"/>
</g>
<!-- a0x612000000640 -->
<g id="node17" class="node">
<title>a0x612000000640</title>
<ellipse fill="none" stroke="black" stroke-dasharray="1,5" cx="191.85" cy="-557" rx="31.4" ry="18"/>
<text text-anchor="middle" x="191.85" y="-553.3" font-family="Times,serif" font-size="14.00">at_40</text>
</g>
<!-- a0x612000000640&#45;&gt;p0x602000000110 -->
<g id="edge16" class="edge">
<title>a0x612000000640&#45;&gt;p0x602000000110</title>
<path fill="none" stroke="black" d="M191.85,-538.8C191.85,-527.16 191.85,-511.55 191.85,-498.24"/>
<polygon fill="black" stroke="black" points="195.35,-498.18 191.85,-488.18 188.35,-498.18 195.35,-498.18"/>
<text text-anchor="middle" x="195.35" y="-509.8" font-family="Times,serif" font-size="14.00">1</text>
</g>
<!-- cs0x612000000640 -->
<g id="node18" class="node">
<title>cs0x612000000640</title>
<ellipse fill="lightgrey" stroke="black" cx="191.85" cy="-630" rx="27" ry="18"/>
<text text-anchor="middle" x="191.85" y="-626.3" font-family="Times,serif" font-size="14.00">e</text>
</g>
<!-- cs0x612000000640&#45;&gt;a0x612000000640 -->
<g id="edge17" class="edge">
<title>cs0x612000000640&#45;&gt;a0x612000000640</title>
<path fill="none" stroke="black" d="M191.85,-611.81C191.85,-603.79 191.85,-594.05 191.85,-585.07"/>
<polygon fill="black" stroke="black" points="195.35,-585.03 191.85,-575.03 188.35,-585.03 195.35,-585.03"/>
</g>
<!-- p0x602000000130 -->
<g id="node19" class="node">
<title>p0x602000000130</title>
<ellipse fill="none" stroke="black" stroke-dasharray="5,2" cx="271.85" cy="-470" rx="31.4" ry="18"/>
<text text-anchor="middle" x="271.85" y="-466.3" font-family="Times,serif" font-size="14.00">pi_30</text>
</g>
<!-- p0x602000000130&#45;&gt;b0x6020000000b0 -->
<g id="edge18" class="edge">
<title>p0x602000000130&#45;&gt;b0x6020000000b0</title>
<path fill="none" stroke="black" d="M271.85,-451.81C271.85,-443.79 271.85,-434.05 271.85,-425.07"/>
<polygon fill="black" stroke="black" points="275.35,-425.03 271.85,-415.03 268.35,-425.03 275.35,-425.03"/>
</g>
<!-- a0x6120000007c0 -->
<g id="node20" class="node">
<title>a0x6120000007c0</title>
<ellipse fill="none" stroke="black" stroke-dasharray="1,5" cx="271.85" cy="-557" rx="30.59" ry="18"/>
<text text-anchor="middle" x="271.85" y="-553.3" font-family="Times,serif" font-size="14.00">at_c0</text>
</g>
<!-- a0x6120000007c0&#45;&gt;p0x602000000130 -->
<g id="edge19" class="edge">
<title>a0x6120000007c0&#45;&gt;p0x602000000130</title>
<path fill="none" stroke="black" d="M271.85,-538.8C271.85,-527.16 271.85,-511.55 271.85,-498.24"/>
<polygon fill="black" stroke="black" points="275.35,-498.18 271.85,-488.18 268.35,-498.18 275.35,-498.18"/>
<text text-anchor="middle" x="275.35" y="-509.8" font-family="Times,serif" font-size="14.00">1</text>
</g>
<!-- cs0x6120000007c0 -->
<g id="node21" class="node">
<title>cs0x6120000007c0</title>
<ellipse fill="lightgrey" stroke="black" cx="271.85" cy="-630" rx="27" ry="18"/>
<text text-anchor="middle" x="271.85" y="-626.3" font-family="Times,serif" font-size="14.00">g</text>
</g>
<!-- cs0x6120000007c0&#45;&gt;a0x6120000007c0 -->
<g id="edge20" class="edge">
<title>cs0x6120000007c0&#45;&gt;a0x6120000007c0</title>
<path fill="none" stroke="black" d="M271.85,-611.81C271.85,-603.79 271.85,-594.05 271.85,-585.07"/>
<polygon fill="black" stroke="black" points="275.35,-585.03 271.85,-575.03 268.35,-585.03 275.35,-585.03"/>
</g>
<!-- p0x602000000150 -->
<g id="node22" class="node">
<title>p0x602000000150</title>
<ellipse fill="none" stroke="black" stroke-dasharray="5,2" cx="351.85" cy="-470" rx="31.4" ry="18"/>
<text text-anchor="middle" x="351.85" y="-466.3" font-family="Times,serif" font-size="14.00">pi_50</text>
</g>
<!-- p0x602000000150&#45;&gt;b0x6020000000b0 -->
<g id="edge21" class="edge">
<title>p0x602000000150&#45;&gt;b0x6020000000b0</title>
<path fill="none" stroke="black" d="M335.27,-454.29C323.9,-444.2 308.63,-430.65 295.93,-419.37"/>
<polygon fill="black" stroke="black" points="298.2,-416.71 288.4,-412.69 293.56,-421.95 298.2,-416.71"/>
</g>
<!-- a0x612000000940 -->
<g id="node23" class="node">
<title>a0x612000000940</title>
<ellipse fill="none" stroke="black" stroke-dasharray="1,5" cx="351.85" cy="-557" rx="31.4" ry="18"/>
<text text-anchor="middle" x="351.85" y="-553.3" font-family="Times,serif" font-size="14.00">at_40</text>
</g>
<!-- a0x612000000940&#45;&gt;p0x602000000150 -->
<g id="edge22" class="edge">
<title>a0x612000000940&#45;&gt;p0x602000000150</title>
<path fill="none" stroke="black" d="M351.85,-538.8C351.85,-527.16 351.85,-511.55 351.85,-498.24"/>
<polygon fill="black" stroke="black" points="355.35,-498.18 351.85,-488.18 348.35,-498.18 355.35,-498.18"/>
<text text-anchor="middle" x="355.35" y="-509.8" font-family="Times,serif" font-size="14.00">1</text>
</g>
<!-- cs0x612000000940 -->
<g id="node24" class="node">
<title>cs0x612000000940</title>
<ellipse fill="lightgrey" stroke="black" cx="351.85" cy="-630" rx="27" ry="18"/>
<text text-anchor="middle" x="351.85" y="-626.3" font-family="Times,serif" font-size="14.00">e</text>
</g>
<!-- cs0x612000000940&#45;&gt;a0x612000000940 -->
<g id="edge23" class="edge">
<title>cs0x612000000940&#45;&gt;a0x612000000940</title>
<path fill="none" stroke="black" d="M351.85,-611.81C351.85,-603.79 351.85,-594.05 351.85,-585.07"/>
<polygon fill="black" stroke="black" points="355.35,-585.03 351.85,-575.03 348.35,-585.03 355.35,-585.03"/>
</g>
<!-- p0x602000000170 -->
<g id="node25" class="node">
<title>p0x602000000170</title>
<ellipse fill="none" stroke="black" stroke-dasharray="5,2" cx="431.85" cy="-470" rx="31.4" ry="18"/>
<text text-anchor="middle" x="431.85" y="-466.3" font-family="Times,serif" font-size="14.00">pi_70</text>
</g>
<!-- p0x602000000170&#45;&gt;b0x6020000000b0 -->
<g id="edge24" class="edge">
<title>p0x602000000170&#45;&gt;b0x6020000000b0</title>
<path fill="none" stroke="black" d="M407.89,-458.37C380.83,-446.36 336.58,-426.73 305.93,-413.12"/>
<polygon fill="black" stroke="black" points="307.05,-409.79 296.49,-408.94 304.21,-416.19 307.05,-409.79"/>
</g>
<!-- a0x612000000ac0 -->
<g id="node26" class="node">
<title>a0x612000000ac0</title>
<ellipse fill="none" stroke="black" stroke-dasharray="1,5" cx="431.85" cy="-557" rx="30.59" ry="18"/>
<text text-anchor="middle" x="431.85" y="-553.3" font-family="Times,serif" font-size="14.00">at_c0</text>
</g>
<!-- a0x612000000ac0&#45;&gt;p0x602000000170 -->
<g id="edge25" class="edge">
<title>a0x612000000ac0&#45;&gt;p0x602000000170</title>
<path fill="none" stroke="black" d="M431.85,-538.8C431.85,-527.16 431.85,-511.55 431.85,-498.24"/>
<polygon fill="black" stroke="black" points="435.35,-498.18 431.85,-488.18 428.35,-498.18 435.35,-498.18"/>
<text text-anchor="middle" x="435.35" y="-509.8" font-family="Times,serif" font-size="14.00">1</text>
</g>
<!-- cs0x612000000ac0 -->
<g id="node27" class="node">
<title>cs0x612000000ac0</title>
<ellipse fill="lightgrey" stroke="black" cx="431.85" cy="-630" rx="27" ry="18"/>
<text text-anchor="middle" x="431.85" y="-626.3" font-family="Times,serif" font-size="14.00">x</text>
</g>
<!-- cs0x612000000ac0&#45;&gt;a0x612000000ac0 -->
<g id="edge26" class="edge">
<title>cs0x612000000ac0&#45;&gt;a0x612000000ac0</title>
<path fill="none" stroke="black" d="M431.85,-611.81C431.85,-603.79 431.85,-594.05 431.85,-585.07"/>
<polygon fill="black" stroke="black" points="435.35,-585.03 431.85,-575.03 428.35,-585.03 435.35,-585.03"/>
</g>
<!-- b0x602000000190 -->
<g id="node28" class="node">
<title>b0x602000000190</title>
<ellipse fill="none" stroke="black" cx="674.85" cy="-397" rx="32.49" ry="18"/>
<text text-anchor="middle" x="674.85" y="-393.3" font-family="Times,serif" font-size="14.00">br_90</text>
</g>
<!-- b0x602000000190&#45;&gt;r0x602000000090 -->
<g id="edge27" class="edge">
<title>b0x602000000190&#45;&gt;r0x602000000090</title>
<path fill="none" stroke="black" d="M650.63,-384.91C624.39,-372.89 582.36,-353.63 553.05,-340.21"/>
<polygon fill="black" stroke="black" points="554.19,-336.88 543.64,-335.9 551.28,-343.25 554.19,-336.88"/>
</g>
<!-- p0x6020000001b0 -->
<g id="node29" class="node">
<title>p0x6020000001b0</title>
<ellipse fill="none" stroke="black" stroke-dasharray="5,2" cx="512.85" cy="-470" rx="31.7" ry="18"/>
<text text-anchor="middle" x="512.85" y="-466.3" font-family="Times,serif" font-size="14.00">pi_b0</text>
</g>
<!-- p0x6020000001b0&#45;&gt;b0x602000000190 -->
<g id="edge28" class="edge">
<title>p0x6020000001b0&#45;&gt;b0x602000000190</title>
<path fill="none" stroke="black" d="M537.45,-458.22C564.93,-446.18 609.59,-426.6 640.5,-413.05"/>
<polygon fill="black" stroke="black" points="642.26,-416.1 650.01,-408.88 639.45,-409.69 642.26,-416.1"/>
</g>
<!-- a0x612000000c40 -->
<g id="node30" class="node">
<title>a0x612000000c40</title>
<ellipse fill="none" stroke="black" stroke-dasharray="1,5" cx="512.85" cy="-557" rx="31.4" ry="18"/>
<text text-anchor="middle" x="512.85" y="-553.3" font-family="Times,serif" font-size="14.00">at_40</text>
</g>
<!-- a0x612000000c40&#45;&gt;p0x6020000001b0 -->
<g id="edge29" class="edge">
<title>a0x612000000c40&#45;&gt;p0x6020000001b0</title>
<path fill="none" stroke="black" d="M512.85,-538.8C512.85,-527.16 512.85,-511.55 512.85,-498.24"/>
<polygon fill="black" stroke="black" points="516.35,-498.18 512.85,-488.18 509.35,-498.18 516.35,-498.18"/>
<text text-anchor="middle" x="516.35" y="-509.8" font-family="Times,serif" font-size="14.00">1</text>
</g>
<!-- cs0x612000000c40 -->
<g id="node31" class="node">
<title>cs0x612000000c40</title>
<ellipse fill="lightgrey" stroke="black" cx="512.85" cy="-630" rx="27" ry="18"/>
<text text-anchor="middle" x="512.85" y="-626.3" font-family="Times,serif" font-size="14.00">_</text>
</g>
<!-- cs0x612000000c40&#45;&gt;a0x612000000c40 -->
<g id="edge30" class="edge">
<title>cs0x612000000c40&#45;&gt;a0x612000000c40</title>
<path fill="none" stroke="black" d="M512.85,-611.81C512.85,-603.79 512.85,-594.05 512.85,-585.07"/>
<polygon fill="black" stroke="black" points="516.35,-585.03 512.85,-575.03 509.35,-585.03 516.35,-585.03"/>
</g>
<!-- p0x6020000001d0 -->
<g id="node32" class="node">
<title>p0x6020000001d0</title>
<ellipse fill="none" stroke="black" stroke-dasharray="5,2" cx="594.85" cy="-470" rx="31.7" ry="18"/>
<text text-anchor="middle" x="594.85" y="-466.3" font-family="Times,serif" font-size="14.00">pi_d0</text>
</g>
<!-- p0x6020000001d0&#45;&gt;b0x602000000190 -->
<g id="edge31" class="edge">
<title>p0x6020000001d0&#45;&gt;b0x602000000190</title>
<path fill="none" stroke="black" d="M611.42,-454.29C622.79,-444.2 638.06,-430.65 650.77,-419.37"/>
<polygon fill="black" stroke="black" points="653.14,-421.95 658.29,-412.69 648.49,-416.71 653.14,-421.95"/>
</g>
<!-- a0x612000000dc0 -->
<g id="node33" class="node">
<title>a0x612000000dc0</title>
<ellipse fill="none" stroke="black" stroke-dasharray="1,5" cx="593.85" cy="-557" rx="30.59" ry="18"/>
<text text-anchor="middle" x="593.85" y="-553.3" font-family="Times,serif" font-size="14.00">at_c0</text>
</g>
<!-- a0x612000000dc0&#45;&gt;p0x6020000001d0 -->
<g id="edge32" class="edge">
<title>a0x612000000dc0&#45;&gt;p0x6020000001d0</title>
<path fill="none" stroke="black" d="M594.05,-538.8C594.19,-527.16 594.37,-511.55 594.53,-498.24"/>
<polygon fill="black" stroke="black" points="598.03,-498.22 594.65,-488.18 591.03,-498.13 598.03,-498.22"/>
<text text-anchor="middle" x="598.35" y="-509.8" font-family="Times,serif" font-size="14.00">1</text>
</g>
<!-- cs0x612000000dc0 -->
<g id="node34" class="node">
<title>cs0x612000000dc0</title>
<ellipse fill="lightgrey" stroke="black" cx="593.85" cy="-630" rx="27" ry="18"/>
<text text-anchor="middle" x="593.85" y="-626.3" font-family="Times,serif" font-size="14.00">R</text>
</g>
<!-- cs0x612000000dc0&#45;&gt;a0x612000000dc0 -->
<g id="edge33" class="edge">
<title>cs0x612000000dc0&#45;&gt;a0x612000000dc0</title>
<path fill="none" stroke="black" d="M593.85,-611.81C593.85,-603.79 593.85,-594.05 593.85,-585.07"/>
<polygon fill="black" stroke="black" points="597.35,-585.03 593.85,-575.03 590.35,-585.03 597.35,-585.03"/>
</g>
<!-- p0x6020000001f0 -->
<g id="node35" class="node">
<title>p0x6020000001f0</title>
<ellipse fill="none" stroke="black" stroke-dasharray="5,2" cx="674.85" cy="-470" rx="29.8" ry="18"/>
<text text-anchor="middle" x="674.85" y="-466.3" font-family="Times,serif" font-size="14.00">pi_f0</text>
</g>
<!-- p0x6020000001f0&#45;&gt;b0x602000000190 -->
<g id="edge34" class="edge">
<title>p0x6020000001f0&#45;&gt;b0x602000000190</title>
<path fill="none" stroke="black" d="M674.85,-451.81C674.85,-443.79 674.85,-434.05 674.85,-425.07"/>
<polygon fill="black" stroke="black" points="678.35,-425.03 674.85,-415.03 671.35,-425.03 678.35,-425.03"/>
</g>
<!-- a0x612000000f40 -->
<g id="node36" class="node">
<title>a0x612000000f40</title>
<ellipse fill="none" stroke="black" stroke-dasharray="1,5" cx="673.85" cy="-557" rx="31.4" ry="18"/>
<text text-anchor="middle" x="673.85" y="-553.3" font-family="Times,serif" font-size="14.00">at_40</text>
</g>
<!-- a0x612000000f40&#45;&gt;p0x6020000001f0 -->
<g id="edge35" class="edge">
<title>a0x612000000f40&#45;&gt;p0x6020000001f0</title>
<path fill="none" stroke="black" d="M674.05,-538.8C674.19,-527.16 674.37,-511.55 674.53,-498.24"/>
<polygon fill="black" stroke="black" points="678.03,-498.22 674.65,-488.18 671.03,-498.13 678.03,-498.22"/>
<text text-anchor="middle" x="678.35" y="-509.8" font-family="Times,serif" font-size="14.00">1</text>
</g>
<!-- cs0x612000000f40 -->
<g id="node37" class="node">
<title>cs0x612000000f40</title>
<ellipse fill="lightgrey" stroke="black" cx="673.85" cy="-630" rx="27" ry="18"/>
<text text-anchor="middle" x="673.85" y="-626.3" font-family="Times,serif" font-size="14.00">e</text>
</g>
<!-- cs0x612000000f40&#45;&gt;a0x612000000f40 -->
<g id="edge36" class="edge">
<title>cs0x612000000f40&#45;&gt;a0x612000000f40</title>
<path fill="none" stroke="black" d="M673.85,-611.81C673.85,-603.79 673.85,-594.05 673.85,-585.07"/>
<polygon fill="black" stroke="black" points="677.35,-585.03 673.85,-575.03 670.35,-585.03 677.35,-585.03"/>
</g>
<!-- p0x602000000210 -->
<g id="node38" class="node">
<title>p0x602000000210</title>
<ellipse fill="none" stroke="black" stroke-dasharray="5,2" cx="753.85" cy="-470" rx="31.4" ry="18"/>
<text text-anchor="middle" x="753.85" y="-466.3" font-family="Times,serif" font-size="14.00">pi_10</text>
</g>
<!-- p0x602000000210&#45;&gt;b0x602000000190 -->
<g id="edge37" class="edge">
<title>p0x602000000210&#45;&gt;b0x602000000190</title>
<path fill="none" stroke="black" d="M737.48,-454.29C726.36,-444.29 711.46,-430.9 698.98,-419.69"/>
<polygon fill="black" stroke="black" points="700.97,-416.77 691.2,-412.69 696.29,-421.98 700.97,-416.77"/>
</g>
<!-- a0x6120000010c0 -->
<g id="node39" class="node">
<title>a0x6120000010c0</title>
<ellipse fill="none" stroke="black" stroke-dasharray="1,5" cx="753.85" cy="-557" rx="30.59" ry="18"/>
<text text-anchor="middle" x="753.85" y="-553.3" font-family="Times,serif" font-size="14.00">at_c0</text>
</g>
<!-- a0x6120000010c0&#45;&gt;p0x602000000210 -->
<g id="edge38" class="edge">
<title>a0x6120000010c0&#45;&gt;p0x602000000210</title>
<path fill="none" stroke="black" d="M753.85,-538.8C753.85,-527.16 753.85,-511.55 753.85,-498.24"/>
<polygon fill="black" stroke="black" points="757.35,-498.18 753.85,-488.18 750.35,-498.18 757.35,-498.18"/>
<text text-anchor="middle" x="757.35" y="-509.8" font-family="Times,serif" font-size="14.00">1</text>
</g>
<!-- cs0x6120000010c0 -->
<g id="node40" class="node">
<title>cs0x6120000010c0</title>
<ellipse fill="lightgrey" stroke="black" cx="753.85" cy="-630" rx="27" ry="18"/>
<text text-anchor="middle" x="753.85" y="-626.3" font-family="Times,serif" font-size="14.00">g</text>
</g>
<!-- cs0x6120000010c0&#45;&gt;a0x6120000010c0 -->
<g id="edge39" class="edge">
<title>cs0x6120000010c0&#45;&gt;a0x6120000010c0</title>
<path fill="none" stroke="black" d="M753.85,-611.81C753.85,-603.79 753.85,-594.05 753.85,-585.07"/>
<polygon fill="black" stroke="black" points="757.35,-585.03 753.85,-575.03 750.35,-585.03 757.35,-585.03"/>
</g>
<!-- p0x602000000230 -->
<g id="node41" class="node">
<title>p0x602000000230</title>
<ellipse fill="none" stroke="black" stroke-dasharray="5,2" cx="833.85" cy="-470" rx="31.4" ry="18"/>
<text text-anchor="middle" x="833.85" y="-466.3" font-family="Times,serif" font-size="14.00">pi_30</text>
</g>
<!-- p0x602000000230&#45;&gt;b0x602000000190 -->
<g id="edge40" class="edge">
<title>p0x602000000230&#45;&gt;b0x602000000190</title>
<path fill="none" stroke="black" d="M809.7,-458.22C782.81,-446.21 739.15,-426.72 708.83,-413.17"/>
<polygon fill="black" stroke="black" points="710.04,-409.88 699.49,-409 707.19,-416.28 710.04,-409.88"/>
</g>
<!-- a0x612000001240 -->
<g id="node42" class="node">
<title>a0x612000001240</title>
<ellipse fill="none" stroke="black" stroke-dasharray="1,5" cx="833.85" cy="-557" rx="31.4" ry="18"/>
<text text-anchor="middle" x="833.85" y="-553.3" font-family="Times,serif" font-size="14.00">at_40</text>
</g>
<!-- a0x612000001240&#45;&gt;p0x602000000230 -->
<g id="edge41" class="edge">
<title>a0x612000001240&#45;&gt;p0x602000000230</title>
<path fill="none" stroke="black" d="M833.85,-538.8C833.85,-527.16 833.85,-511.55 833.85,-498.24"/>
<polygon fill="black" stroke="black" points="837.35,-498.18 833.85,-488.18 830.35,-498.18 837.35,-498.18"/>
<text text-anchor="middle" x="837.35" y="-509.8" font-family="Times,serif" font-size="14.00">1</text>
</g>
<!-- cs0x612000001240 -->
<g id="node43" class="node">
<title>cs0x612000001240</title>
<ellipse fill="lightgrey" stroke="black" cx="833.85" cy="-630" rx="27" ry="18"/>
<text text-anchor="middle" x="833.85" y="-626.3" font-family="Times,serif" font-size="14.00">e</text>
</g>
<!-- cs0x612000001240&#45;&gt;a0x612000001240 -->
<g id="edge42" class="edge">
<title>cs0x612000001240&#45;&gt;a0x612000001240</title>
<path fill="none" stroke="black" d="M833.85,-611.81C833.85,-603.79 833.85,-594.05 833.85,-585.07"/>
<polygon fill="black" stroke="black" points="837.35,-585.03 833.85,-575.03 830.35,-585.03 837.35,-585.03"/>
</g>
<!-- p0x602000000250 -->
<g id="node44" class="node">
<title>p0x602000000250</title>
<ellipse fill="none" stroke="black" stroke-dasharray="5,2" cx="913.85" cy="-470" rx="31.4" ry="18"/>
<text text-anchor="middle" x="913.85" y="-466.3" font-family="Times,serif" font-size="14.00">pi_50</text>
</g>
<!-- p0x602000000250&#45;&gt;b0x602000000190 -->
<g id="edge43" class="edge">
<title>p0x602000000250&#45;&gt;b0x602000000190</title>
<path fill="none" stroke="black" d="M889.94,-458.21C884.69,-456.02 879.12,-453.83 873.85,-452 819.43,-433.15 754.82,-416.67 714.32,-407.02"/>
<polygon fill="black" stroke="black" points="715.1,-403.61 704.56,-404.72 713.49,-410.42 715.1,-403.61"/>
</g>
<!-- a0x6120000013c0 -->
<g id="node45" class="node">
<title>a0x6120000013c0</title>
<ellipse fill="none" stroke="black" stroke-dasharray="1,5" cx="913.85" cy="-557" rx="30.59" ry="18"/>
<text text-anchor="middle" x="913.85" y="-553.3" font-family="Times,serif" font-size="14.00">at_c0</text>
</g>
<!-- a0x6120000013c0&#45;&gt;p0x602000000250 -->
<g id="edge44" class="edge">
<title>a0x6120000013c0&#45;&gt;p0x602000000250</title>
<path fill="none" stroke="black" d="M913.85,-538.8C913.85,-527.16 913.85,-511.55 913.85,-498.24"/>
<polygon fill="black" stroke="black" points="917.35,-498.18 913.85,-488.18 910.35,-498.18 917.35,-498.18"/>
<text text-anchor="middle" x="917.35" y="-509.8" font-family="Times,serif" font-size="14.00">1</text>
</g>
<!-- cs0x6120000013c0 -->
<g id="node46" class="node">
<title>cs0x6120000013c0</title>
<ellipse fill="lightgrey" stroke="black" cx="913.85" cy="-630" rx="27" ry="18"/>
<text text-anchor="middle" x="913.85" y="-626.3" font-family="Times,serif" font-size="14.00">x</text>
</g>
<!-- cs0x6120000013c0&#45;&gt;a0x6120000013c0 -->
<g id="edge45" class="edge">
<title>cs0x6120000013c0&#45;&gt;a0x6120000013c0</title>
<path fill="none" stroke="black" d="M913.85,-611.81C913.85,-603.79 913.85,-594.05 913.85,-585.07"/>
<polygon fill="black" stroke="black" points="917.35,-585.03 913.85,-575.03 910.35,-585.03 917.35,-585.03"/>
</g>
</g>
</svg>
