<?xml version="1.0" encoding="UTF-8" standalone="no"?>
<!DOCTYPE svg PUBLIC "-//W3C//DTD SVG 1.1//EN"
 "http://www.w3.org/Graphics/SVG/1.1/DTD/svg11.dtd">
<!-- Generated by graphviz version 2.50.0 (0)
 -->
<!-- Title: Regex_Relationship Pages: 1 -->
<svg width="954pt" height="679pt"
 viewBox="0.00 0.00 953.69 679.00" xmlns="http://www.w3.org/2000/svg" xmlns:xlink="http://www.w3.org/1999/xlink">
<g id="graph0" class="graph" transform="scale(1 1) rotate(0) translate(4 675)">
<title>Regex_Relationship</title>
<polygon fill="white" stroke="transparent" points="-4,4 -4,-675 949.69,-675 949.69,4 -4,4"/>
<text text-anchor="middle" x="119.5" y="-655.8" font-family="Times,serif" font-size="14.00">regexp = [[:digit:]tiny](&#45;regex|_Regex)*</text>
<!-- r0x12a02a0 -->
<g id="node1" class="node">
<title>r0x12a02a0</title>
<ellipse fill="none" stroke="black" stroke-width="2" cx="458.85" cy="-18" rx="31.4" ry="18"/>
<text text-anchor="middle" x="458.85" y="-14.3" font-family="Times,serif" font-size="14.00">re_a0</text>
</g>
<!-- b0x12a0420 -->
<g id="node2" class="node">
<title>b0x12a0420</title>
<ellipse fill="none" stroke="black" cx="458.85" cy="-91" rx="32.49" ry="18"/>
<text text-anchor="middle" x="458.85" y="-87.3" font-family="Times,serif" font-size="14.00">br_20</text>
</g>
<!-- b0x12a0420&#45;&gt;r0x12a02a0 -->
<g id="edge1" class="edge">
<title>b0x12a0420&#45;&gt;r0x12a02a0</title>
<path fill="none" stroke="black" d="M458.85,-72.81C458.85,-64.79 458.85,-55.05 458.85,-46.07"/>
<polygon fill="black" stroke="black" points="462.35,-46.03 458.85,-36.03 455.35,-46.03 462.35,-46.03"/>
</g>
<!-- p0x12a0470 -->
<g id="node3" class="node">
<title>p0x12a0470</title>
<ellipse fill="none" stroke="black" stroke-dasharray="5,2" cx="418.85" cy="-164" rx="31.4" ry="18"/>
<text text-anchor="middle" x="418.85" y="-160.3" font-family="Times,serif" font-size="14.00">pi_70</text>
</g>
<!-- p0x12a0470&#45;&gt;b0x12a0420 -->
<g id="edge2" class="edge">
<title>p0x12a0470&#45;&gt;b0x12a0420</title>
<path fill="none" stroke="black" d="M428.12,-146.53C433.02,-137.84 439.14,-126.99 444.62,-117.26"/>
<polygon fill="black" stroke="black" points="447.76,-118.81 449.62,-108.38 441.66,-115.37 447.76,-118.81"/>
</g>
<!-- a0x12a0490 -->
<g id="node4" class="node">
<title>a0x12a0490</title>
<ellipse fill="none" stroke="black" stroke-dasharray="1,5" cx="418.85" cy="-251" rx="31.4" ry="18"/>
<text text-anchor="middle" x="418.85" y="-247.3" font-family="Times,serif" font-size="14.00">at_90</text>
</g>
<!-- a0x12a0490&#45;&gt;p0x12a0470 -->
<g id="edge3" class="edge">
<title>a0x12a0490&#45;&gt;p0x12a0470</title>
<path fill="none" stroke="black" d="M418.85,-232.8C418.85,-221.16 418.85,-205.55 418.85,-192.24"/>
<polygon fill="black" stroke="black" points="422.35,-192.18 418.85,-182.18 415.35,-192.18 422.35,-192.18"/>
<text text-anchor="middle" x="428.35" y="-203.8" font-family="Times,serif" font-size="14.00">1&#45;1</text>
</g>
<!-- cs0x12a0490 -->
<g id="node5" class="node">
<title>cs0x12a0490</title>
<ellipse fill="lightgrey" stroke="black" cx="400.85" cy="-324" rx="69.59" ry="18"/>
<text text-anchor="middle" x="400.85" y="-320.3" font-family="Times,serif" font-size="14.00">0123456789inty</text>
</g>
<!-- cs0x12a0490&#45;&gt;a0x12a0490 -->
<g id="edge4" class="edge">
<title>cs0x12a0490&#45;&gt;a0x12a0490</title>
<path fill="none" stroke="black" d="M405.2,-305.81C407.26,-297.7 409.76,-287.84 412.06,-278.78"/>
<polygon fill="black" stroke="black" points="415.47,-279.58 414.53,-269.03 408.68,-277.86 415.47,-279.58"/>
</g>
<!-- p0x12a06b0 -->
<g id="node6" class="node">
<title>p0x12a06b0</title>
<ellipse fill="none" stroke="black" stroke-dasharray="5,2" cx="503.85" cy="-164" rx="31.7" ry="18"/>
<text text-anchor="middle" x="503.85" y="-160.3" font-family="Times,serif" font-size="14.00">pi_b0</text>
</g>
<!-- p0x12a06b0&#45;&gt;b0x12a0420 -->
<g id="edge5" class="edge">
<title>p0x12a06b0&#45;&gt;b0x12a0420</title>
<path fill="none" stroke="black" d="M493.64,-146.89C488.08,-138.12 481.07,-127.07 474.81,-117.19"/>
<polygon fill="black" stroke="black" points="477.64,-115.11 469.33,-108.54 471.73,-118.86 477.64,-115.11"/>
</g>
<!-- a0x12a06d0 -->
<g id="node7" class="node">
<title>a0x12a06d0</title>
<ellipse fill="none" stroke="black" stroke-dasharray="1,5" cx="508.85" cy="-251" rx="31.7" ry="18"/>
<text text-anchor="middle" x="508.85" y="-247.3" font-family="Times,serif" font-size="14.00">at_d0</text>
</g>
<!-- a0x12a06d0&#45;&gt;p0x12a06b0 -->
<g id="edge6" class="edge">
<title>a0x12a06d0&#45;&gt;p0x12a06b0</title>
<path fill="none" stroke="black" d="M507.84,-232.8C507.15,-221.16 506.23,-205.55 505.45,-192.24"/>
<polygon fill="black" stroke="black" points="508.94,-191.95 504.86,-182.18 501.95,-192.36 508.94,-191.95"/>
<text text-anchor="middle" x="520.85" y="-203.8" font-family="Times,serif" font-size="14.00">0&#45;inf</text>
</g>
<!-- r0x12a07e0 -->
<g id="node8" class="node">
<title>r0x12a07e0</title>
<ellipse fill="none" stroke="black" stroke-width="2" cx="518.85" cy="-324" rx="30.59" ry="18"/>
<text text-anchor="middle" x="518.85" y="-320.3" font-family="Times,serif" font-size="14.00">re_e0</text>
</g>
<!-- r0x12a07e0&#45;&gt;a0x12a06d0 -->
<g id="edge7" class="edge">
<title>r0x12a07e0&#45;&gt;a0x12a06d0</title>
<path fill="none" stroke="black" d="M516.43,-305.81C515.3,-297.79 513.92,-288.05 512.66,-279.07"/>
<polygon fill="black" stroke="black" points="516.11,-278.44 511.25,-269.03 509.17,-279.42 516.11,-278.44"/>
</g>
<!-- b0x12a0960 -->
<g id="node9" class="node">
<title>b0x12a0960</title>
<ellipse fill="none" stroke="black" cx="272.85" cy="-397" rx="32.49" ry="18"/>
<text text-anchor="middle" x="272.85" y="-393.3" font-family="Times,serif" font-size="14.00">br_60</text>
</g>
<!-- b0x12a0960&#45;&gt;r0x12a07e0 -->
<g id="edge8" class="edge">
<title>b0x12a0960&#45;&gt;r0x12a07e0</title>
<path fill="none" stroke="black" d="M302.76,-389.74C343.4,-380.88 418.07,-363.37 479.85,-342 481.95,-341.27 484.09,-340.48 486.24,-339.66"/>
<polygon fill="black" stroke="black" points="487.63,-342.87 495.57,-335.85 484.99,-336.38 487.63,-342.87"/>
</g>
<!-- p0x12a09b0 -->
<g id="node10" class="node">
<title>p0x12a09b0</title>
<ellipse fill="none" stroke="black" stroke-dasharray="5,2" cx="32.85" cy="-470" rx="31.7" ry="18"/>
<text text-anchor="middle" x="32.85" y="-466.3" font-family="Times,serif" font-size="14.00">pi_b0</text>
</g>
<!-- p0x12a09b0&#45;&gt;b0x12a0960 -->
<g id="edge9" class="edge">
<title>p0x12a09b0&#45;&gt;b0x12a0960</title>
<path fill="none" stroke="black" d="M57.54,-458.44C63.18,-456.19 69.18,-453.91 74.85,-452 129.04,-433.71 193.12,-417.13 233.38,-407.3"/>
<polygon fill="black" stroke="black" points="234.44,-410.65 243.33,-404.89 232.79,-403.84 234.44,-410.65"/>
</g>
<!-- a0x12a09d0 -->
<g id="node11" class="node">
<title>a0x12a09d0</title>
<ellipse fill="none" stroke="black" stroke-dasharray="1,5" cx="31.85" cy="-557" rx="31.7" ry="18"/>
<text text-anchor="middle" x="31.85" y="-553.3" font-family="Times,serif" font-size="14.00">at_d0</text>
</g>
<!-- a0x12a09d0&#45;&gt;p0x12a09b0 -->
<g id="edge10" class="edge">
<title>a0x12a09d0&#45;&gt;p0x12a09b0</title>
<path fill="none" stroke="black" d="M32.05,-538.8C32.19,-527.16 32.37,-511.55 32.53,-498.24"/>
<polygon fill="black" stroke="black" points="36.03,-498.22 32.65,-488.18 29.03,-498.13 36.03,-498.22"/>
<text text-anchor="middle" x="42.35" y="-509.8" font-family="Times,serif" font-size="14.00">1&#45;1</text>
</g>
<!-- cs0x12a09d0 -->
<g id="node12" class="node">
<title>cs0x12a09d0</title>
<ellipse fill="lightgrey" stroke="black" cx="31.85" cy="-630" rx="27" ry="18"/>
<text text-anchor="middle" x="31.85" y="-626.3" font-family="Times,serif" font-size="14.00">&#45;</text>
</g>
<!-- cs0x12a09d0&#45;&gt;a0x12a09d0 -->
<g id="edge11" class="edge">
<title>cs0x12a09d0&#45;&gt;a0x12a09d0</title>
<path fill="none" stroke="black" d="M31.85,-611.81C31.85,-603.79 31.85,-594.05 31.85,-585.07"/>
<polygon fill="black" stroke="black" points="35.35,-585.03 31.85,-575.03 28.35,-585.03 35.35,-585.03"/>
</g>
<!-- p0x12a0bf0 -->
<g id="node13" class="node">
<title>p0x12a0bf0</title>
<ellipse fill="none" stroke="black" stroke-dasharray="5,2" cx="113.85" cy="-470" rx="29.8" ry="18"/>
<text text-anchor="middle" x="113.85" y="-466.3" font-family="Times,serif" font-size="14.00">pi_f0</text>
</g>
<!-- p0x12a0bf0&#45;&gt;b0x12a0960 -->
<g id="edge12" class="edge">
<title>p0x12a0bf0&#45;&gt;b0x12a0960</title>
<path fill="none" stroke="black" d="M137.31,-458.52C164.12,-446.55 208.24,-426.85 238.83,-413.19"/>
<polygon fill="black" stroke="black" points="240.54,-416.26 248.24,-408.99 237.69,-409.87 240.54,-416.26"/>
</g>
<!-- a0x12a0c10 -->
<g id="node14" class="node">
<title>a0x12a0c10</title>
<ellipse fill="none" stroke="black" stroke-dasharray="1,5" cx="112.85" cy="-557" rx="31.4" ry="18"/>
<text text-anchor="middle" x="112.85" y="-553.3" font-family="Times,serif" font-size="14.00">at_10</text>
</g>
<!-- a0x12a0c10&#45;&gt;p0x12a0bf0 -->
<g id="edge13" class="edge">
<title>a0x12a0c10&#45;&gt;p0x12a0bf0</title>
<path fill="none" stroke="black" d="M113.05,-538.8C113.19,-527.16 113.37,-511.55 113.53,-498.24"/>
<polygon fill="black" stroke="black" points="117.03,-498.22 113.65,-488.18 110.03,-498.13 117.03,-498.22"/>
<text text-anchor="middle" x="123.35" y="-509.8" font-family="Times,serif" font-size="14.00">1&#45;1</text>
</g>
<!-- cs0x12a0c10 -->
<g id="node15" class="node">
<title>cs0x12a0c10</title>
<ellipse fill="lightgrey" stroke="black" cx="112.85" cy="-630" rx="27" ry="18"/>
<text text-anchor="middle" x="112.85" y="-626.3" font-family="Times,serif" font-size="14.00">r</text>
</g>
<!-- cs0x12a0c10&#45;&gt;a0x12a0c10 -->
<g id="edge14" class="edge">
<title>cs0x12a0c10&#45;&gt;a0x12a0c10</title>
<path fill="none" stroke="black" d="M112.85,-611.81C112.85,-603.79 112.85,-594.05 112.85,-585.07"/>
<polygon fill="black" stroke="black" points="116.35,-585.03 112.85,-575.03 109.35,-585.03 116.35,-585.03"/>
</g>
<!-- p0x12a0e30 -->
<g id="node16" class="node">
<title>p0x12a0e30</title>
<ellipse fill="none" stroke="black" stroke-dasharray="5,2" cx="192.85" cy="-470" rx="31.4" ry="18"/>
<text text-anchor="middle" x="192.85" y="-466.3" font-family="Times,serif" font-size="14.00">pi_30</text>
</g>
<!-- p0x12a0e30&#45;&gt;b0x12a0960 -->
<g id="edge15" class="edge">
<title>p0x12a0e30&#45;&gt;b0x12a0960</title>
<path fill="none" stroke="black" d="M209.42,-454.29C220.79,-444.2 236.06,-430.65 248.77,-419.37"/>
<polygon fill="black" stroke="black" points="251.14,-421.95 256.29,-412.69 246.49,-416.71 251.14,-421.95"/>
</g>
<!-- a0x12a0e50 -->
<g id="node17" class="node">
<title>a0x12a0e50</title>
<ellipse fill="none" stroke="black" stroke-dasharray="1,5" cx="192.85" cy="-557" rx="31.4" ry="18"/>
<text text-anchor="middle" x="192.85" y="-553.3" font-family="Times,serif" font-size="14.00">at_50</text>
</g>
<!-- a0x12a0e50&#45;&gt;p0x12a0e30 -->
<g id="edge16" class="edge">
<title>a0x12a0e50&#45;&gt;p0x12a0e30</title>
<path fill="none" stroke="black" d="M192.85,-538.8C192.85,-527.16 192.85,-511.55 192.85,-498.24"/>
<polygon fill="black" stroke="black" points="196.35,-498.18 192.85,-488.18 189.35,-498.18 196.35,-498.18"/>
<text text-anchor="middle" x="202.35" y="-509.8" font-family="Times,serif" font-size="14.00">1&#45;1</text>
</g>
<!-- cs0x12a0e50 -->
<g id="node18" class="node">
<title>cs0x12a0e50</title>
<ellipse fill="lightgrey" stroke="black" cx="192.85" cy="-630" rx="27" ry="18"/>
<text text-anchor="middle" x="192.85" y="-626.3" font-family="Times,serif" font-size="14.00">e</text>
</g>
<!-- cs0x12a0e50&#45;&gt;a0x12a0e50 -->
<g id="edge17" class="edge">
<title>cs0x12a0e50&#45;&gt;a0x12a0e50</title>
<path fill="none" stroke="black" d="M192.85,-611.81C192.85,-603.79 192.85,-594.05 192.85,-585.07"/>
<polygon fill="black" stroke="black" points="196.35,-585.03 192.85,-575.03 189.35,-585.03 196.35,-585.03"/>
</g>
<!-- p0x12a1070 -->
<g id="node19" class="node">
<title>p0x12a1070</title>
<ellipse fill="none" stroke="black" stroke-dasharray="5,2" cx="272.85" cy="-470" rx="31.4" ry="18"/>
<text text-anchor="middle" x="272.85" y="-466.3" font-family="Times,serif" font-size="14.00">pi_70</text>
</g>
<!-- p0x12a1070&#45;&gt;b0x12a0960 -->
<g id="edge18" class="edge">
<title>p0x12a1070&#45;&gt;b0x12a0960</title>
<path fill="none" stroke="black" d="M272.85,-451.81C272.85,-443.79 272.85,-434.05 272.85,-425.07"/>
<polygon fill="black" stroke="black" points="276.35,-425.03 272.85,-415.03 269.35,-425.03 276.35,-425.03"/>
</g>
<!-- a0x12a1090 -->
<g id="node20" class="node">
<title>a0x12a1090</title>
<ellipse fill="none" stroke="black" stroke-dasharray="1,5" cx="272.85" cy="-557" rx="31.4" ry="18"/>
<text text-anchor="middle" x="272.85" y="-553.3" font-family="Times,serif" font-size="14.00">at_90</text>
</g>
<!-- a0x12a1090&#45;&gt;p0x12a1070 -->
<g id="edge19" class="edge">
<title>a0x12a1090&#45;&gt;p0x12a1070</title>
<path fill="none" stroke="black" d="M272.85,-538.8C272.85,-527.16 272.85,-511.55 272.85,-498.24"/>
<polygon fill="black" stroke="black" points="276.35,-498.18 272.85,-488.18 269.35,-498.18 276.35,-498.18"/>
<text text-anchor="middle" x="282.35" y="-509.8" font-family="Times,serif" font-size="14.00">1&#45;1</text>
</g>
<!-- cs0x12a1090 -->
<g id="node21" class="node">
<title>cs0x12a1090</title>
<ellipse fill="lightgrey" stroke="black" cx="272.85" cy="-630" rx="27" ry="18"/>
<text text-anchor="middle" x="272.85" y="-626.3" font-family="Times,serif" font-size="14.00">g</text>
</g>
<!-- cs0x12a1090&#45;&gt;a0x12a1090 -->
<g id="edge20" class="edge">
<title>cs0x12a1090&#45;&gt;a0x12a1090</title>
<path fill="none" stroke="black" d="M272.85,-611.81C272.85,-603.79 272.85,-594.05 272.85,-585.07"/>
<polygon fill="black" stroke="black" points="276.35,-585.03 272.85,-575.03 269.35,-585.03 276.35,-585.03"/>
</g>
<!-- p0x12a1320 -->
<g id="node22" class="node">
<title>p0x12a1320</title>
<ellipse fill="none" stroke="black" stroke-dasharray="5,2" cx="352.85" cy="-470" rx="31.4" ry="18"/>
<text text-anchor="middle" x="352.85" y="-466.3" font-family="Times,serif" font-size="14.00">pi_20</text>
</g>
<!-- p0x12a1320&#45;&gt;b0x12a0960 -->
<g id="edge21" class="edge">
<title>p0x12a1320&#45;&gt;b0x12a0960</title>
<path fill="none" stroke="black" d="M336.27,-454.29C324.9,-444.2 309.63,-430.65 296.93,-419.37"/>
<polygon fill="black" stroke="black" points="299.2,-416.71 289.4,-412.69 294.56,-421.95 299.2,-416.71"/>
</g>
<!-- a0x12a1340 -->
<g id="node23" class="node">
<title>a0x12a1340</title>
<ellipse fill="none" stroke="black" stroke-dasharray="1,5" cx="352.85" cy="-557" rx="31.4" ry="18"/>
<text text-anchor="middle" x="352.85" y="-553.3" font-family="Times,serif" font-size="14.00">at_40</text>
</g>
<!-- a0x12a1340&#45;&gt;p0x12a1320 -->
<g id="edge22" class="edge">
<title>a0x12a1340&#45;&gt;p0x12a1320</title>
<path fill="none" stroke="black" d="M352.85,-538.8C352.85,-527.16 352.85,-511.55 352.85,-498.24"/>
<polygon fill="black" stroke="black" points="356.35,-498.18 352.85,-488.18 349.35,-498.18 356.35,-498.18"/>
<text text-anchor="middle" x="362.35" y="-509.8" font-family="Times,serif" font-size="14.00">1&#45;1</text>
</g>
<!-- cs0x12a1340 -->
<g id="node24" class="node">
<title>cs0x12a1340</title>
<ellipse fill="lightgrey" stroke="black" cx="352.85" cy="-630" rx="27" ry="18"/>
<text text-anchor="middle" x="352.85" y="-626.3" font-family="Times,serif" font-size="14.00">e</text>
</g>
<!-- cs0x12a1340&#45;&gt;a0x12a1340 -->
<g id="edge23" class="edge">
<title>cs0x12a1340&#45;&gt;a0x12a1340</title>
<path fill="none" stroke="black" d="M352.85,-611.81C352.85,-603.79 352.85,-594.05 352.85,-585.07"/>
<polygon fill="black" stroke="black" points="356.35,-585.03 352.85,-575.03 349.35,-585.03 356.35,-585.03"/>
</g>
<!-- p0x12a1560 -->
<g id="node25" class="node">
<title>p0x12a1560</title>
<ellipse fill="none" stroke="black" stroke-dasharray="5,2" cx="432.85" cy="-470" rx="31.4" ry="18"/>
<text text-anchor="middle" x="432.85" y="-466.3" font-family="Times,serif" font-size="14.00">pi_60</text>
</g>
<!-- p0x12a1560&#45;&gt;b0x12a0960 -->
<g id="edge24" class="edge">
<title>p0x12a1560&#45;&gt;b0x12a0960</title>
<path fill="none" stroke="black" d="M408.89,-458.37C381.83,-446.36 337.58,-426.73 306.93,-413.12"/>
<polygon fill="black" stroke="black" points="308.05,-409.79 297.49,-408.94 305.21,-416.19 308.05,-409.79"/>
</g>
<!-- a0x12a1580 -->
<g id="node26" class="node">
<title>a0x12a1580</title>
<ellipse fill="none" stroke="black" stroke-dasharray="1,5" cx="432.85" cy="-557" rx="31.4" ry="18"/>
<text text-anchor="middle" x="432.85" y="-553.3" font-family="Times,serif" font-size="14.00">at_80</text>
</g>
<!-- a0x12a1580&#45;&gt;p0x12a1560 -->
<g id="edge25" class="edge">
<title>a0x12a1580&#45;&gt;p0x12a1560</title>
<path fill="none" stroke="black" d="M432.85,-538.8C432.85,-527.16 432.85,-511.55 432.85,-498.24"/>
<polygon fill="black" stroke="black" points="436.35,-498.18 432.85,-488.18 429.35,-498.18 436.35,-498.18"/>
<text text-anchor="middle" x="442.35" y="-509.8" font-family="Times,serif" font-size="14.00">1&#45;1</text>
</g>
<!-- cs0x12a1580 -->
<g id="node27" class="node">
<title>cs0x12a1580</title>
<ellipse fill="lightgrey" stroke="black" cx="432.85" cy="-630" rx="27" ry="18"/>
<text text-anchor="middle" x="432.85" y="-626.3" font-family="Times,serif" font-size="14.00">x</text>
</g>
<!-- cs0x12a1580&#45;&gt;a0x12a1580 -->
<g id="edge26" class="edge">
<title>cs0x12a1580&#45;&gt;a0x12a1580</title>
<path fill="none" stroke="black" d="M432.85,-611.81C432.85,-603.79 432.85,-594.05 432.85,-585.07"/>
<polygon fill="black" stroke="black" points="436.35,-585.03 432.85,-575.03 429.35,-585.03 436.35,-585.03"/>
</g>
<!-- b0x12a17a0 -->
<g id="node28" class="node">
<title>b0x12a17a0</title>
<ellipse fill="none" stroke="black" cx="672.85" cy="-397" rx="32.49" ry="18"/>
<text text-anchor="middle" x="672.85" y="-393.3" font-family="Times,serif" font-size="14.00">br_a0</text>
</g>
<!-- b0x12a17a0&#45;&gt;r0x12a07e0 -->
<g id="edge27" class="edge">
<title>b0x12a17a0&#45;&gt;r0x12a07e0</title>
<path fill="none" stroke="black" d="M648.45,-384.75C622.23,-372.66 580.44,-353.4 551.43,-340.02"/>
<polygon fill="black" stroke="black" points="552.67,-336.74 542.13,-335.73 549.74,-343.1 552.67,-336.74"/>
</g>
<!-- p0x12a1900 -->
<g id="node29" class="node">
<title>p0x12a1900</title>
<ellipse fill="none" stroke="black" stroke-dasharray="5,2" cx="514.85" cy="-470" rx="27" ry="18"/>
<text text-anchor="middle" x="514.85" y="-466.3" font-family="Times,serif" font-size="14.00">pi_0</text>
</g>
<!-- p0x12a1900&#45;&gt;b0x12a17a0 -->
<g id="edge28" class="edge">
<title>p0x12a1900&#45;&gt;b0x12a17a0</title>
<path fill="none" stroke="black" d="M536.82,-459.13C563.29,-447.23 608.06,-427.11 638.97,-413.22"/>
<polygon fill="black" stroke="black" points="640.79,-416.24 648.47,-408.95 637.92,-409.86 640.79,-416.24"/>
</g>
<!-- a0x12a1920 -->
<g id="node30" class="node">
<title>a0x12a1920</title>
<ellipse fill="none" stroke="black" stroke-dasharray="1,5" cx="512.85" cy="-557" rx="31.4" ry="18"/>
<text text-anchor="middle" x="512.85" y="-553.3" font-family="Times,serif" font-size="14.00">at_20</text>
</g>
<!-- a0x12a1920&#45;&gt;p0x12a1900 -->
<g id="edge29" class="edge">
<title>a0x12a1920&#45;&gt;p0x12a1900</title>
<path fill="none" stroke="black" d="M513.25,-538.8C513.53,-527.16 513.89,-511.55 514.21,-498.24"/>
<polygon fill="black" stroke="black" points="517.71,-498.26 514.44,-488.18 510.71,-498.09 517.71,-498.26"/>
<text text-anchor="middle" x="524.35" y="-509.8" font-family="Times,serif" font-size="14.00">1&#45;1</text>
</g>
<!-- cs0x12a1920 -->
<g id="node31" class="node">
<title>cs0x12a1920</title>
<ellipse fill="lightgrey" stroke="black" cx="512.85" cy="-630" rx="27" ry="18"/>
<text text-anchor="middle" x="512.85" y="-626.3" font-family="Times,serif" font-size="14.00">_</text>
</g>
<!-- cs0x12a1920&#45;&gt;a0x12a1920 -->
<g id="edge30" class="edge">
<title>cs0x12a1920&#45;&gt;a0x12a1920</title>
<path fill="none" stroke="black" d="M512.85,-611.81C512.85,-603.79 512.85,-594.05 512.85,-585.07"/>
<polygon fill="black" stroke="black" points="516.35,-585.03 512.85,-575.03 509.35,-585.03 516.35,-585.03"/>
</g>
<!-- p0x12a1b40 -->
<g id="node32" class="node">
<title>p0x12a1b40</title>
<ellipse fill="none" stroke="black" stroke-dasharray="5,2" cx="592.85" cy="-470" rx="31.4" ry="18"/>
<text text-anchor="middle" x="592.85" y="-466.3" font-family="Times,serif" font-size="14.00">pi_40</text>
</g>
<!-- p0x12a1b40&#45;&gt;b0x12a17a0 -->
<g id="edge31" class="edge">
<title>p0x12a1b40&#45;&gt;b0x12a17a0</title>
<path fill="none" stroke="black" d="M609.42,-454.29C620.79,-444.2 636.06,-430.65 648.77,-419.37"/>
<polygon fill="black" stroke="black" points="651.14,-421.95 656.29,-412.69 646.49,-416.71 651.14,-421.95"/>
</g>
<!-- a0x12a1b60 -->
<g id="node33" class="node">
<title>a0x12a1b60</title>
<ellipse fill="none" stroke="black" stroke-dasharray="1,5" cx="592.85" cy="-557" rx="31.4" ry="18"/>
<text text-anchor="middle" x="592.85" y="-553.3" font-family="Times,serif" font-size="14.00">at_60</text>
</g>
<!-- a0x12a1b60&#45;&gt;p0x12a1b40 -->
<g id="edge32" class="edge">
<title>a0x12a1b60&#45;&gt;p0x12a1b40</title>
<path fill="none" stroke="black" d="M592.85,-538.8C592.85,-527.16 592.85,-511.55 592.85,-498.24"/>
<polygon fill="black" stroke="black" points="596.35,-498.18 592.85,-488.18 589.35,-498.18 596.35,-498.18"/>
<text text-anchor="middle" x="602.35" y="-509.8" font-family="Times,serif" font-size="14.00">1&#45;1</text>
</g>
<!-- cs0x12a1b60 -->
<g id="node34" class="node">
<title>cs0x12a1b60</title>
<ellipse fill="lightgrey" stroke="black" cx="592.85" cy="-630" rx="27" ry="18"/>
<text text-anchor="middle" x="592.85" y="-626.3" font-family="Times,serif" font-size="14.00">R</text>
</g>
<!-- cs0x12a1b60&#45;&gt;a0x12a1b60 -->
<g id="edge33" class="edge">
<title>cs0x12a1b60&#45;&gt;a0x12a1b60</title>
<path fill="none" stroke="black" d="M592.85,-611.81C592.85,-603.79 592.85,-594.05 592.85,-585.07"/>
<polygon fill="black" stroke="black" points="596.35,-585.03 592.85,-575.03 589.35,-585.03 596.35,-585.03"/>
</g>
<!-- p0x12a1d80 -->
<g id="node35" class="node">
<title>p0x12a1d80</title>
<ellipse fill="none" stroke="black" stroke-dasharray="5,2" cx="672.85" cy="-470" rx="31.4" ry="18"/>
<text text-anchor="middle" x="672.85" y="-466.3" font-family="Times,serif" font-size="14.00">pi_80</text>
</g>
<!-- p0x12a1d80&#45;&gt;b0x12a17a0 -->
<g id="edge34" class="edge">
<title>p0x12a1d80&#45;&gt;b0x12a17a0</title>
<path fill="none" stroke="black" d="M672.85,-451.81C672.85,-443.79 672.85,-434.05 672.85,-425.07"/>
<polygon fill="black" stroke="black" points="676.35,-425.03 672.85,-415.03 669.35,-425.03 676.35,-425.03"/>
</g>
<!-- a0x12a1da0 -->
<g id="node36" class="node">
<title>a0x12a1da0</title>
<ellipse fill="none" stroke="black" stroke-dasharray="1,5" cx="672.85" cy="-557" rx="31.4" ry="18"/>
<text text-anchor="middle" x="672.85" y="-553.3" font-family="Times,serif" font-size="14.00">at_a0</text>
</g>
<!-- a0x12a1da0&#45;&gt;p0x12a1d80 -->
<g id="edge35" class="edge">
<title>a0x12a1da0&#45;&gt;p0x12a1d80</title>
<path fill="none" stroke="black" d="M672.85,-538.8C672.85,-527.16 672.85,-511.55 672.85,-498.24"/>
<polygon fill="black" stroke="black" points="676.35,-498.18 672.85,-488.18 669.35,-498.18 676.35,-498.18"/>
<text text-anchor="middle" x="682.35" y="-509.8" font-family="Times,serif" font-size="14.00">1&#45;1</text>
</g>
<!-- cs0x12a1da0 -->
<g id="node37" class="node">
<title>cs0x12a1da0</title>
<ellipse fill="lightgrey" stroke="black" cx="672.85" cy="-630" rx="27" ry="18"/>
<text text-anchor="middle" x="672.85" y="-626.3" font-family="Times,serif" font-size="14.00">e</text>
</g>
<!-- cs0x12a1da0&#45;&gt;a0x12a1da0 -->
<g id="edge36" class="edge">
<title>cs0x12a1da0&#45;&gt;a0x12a1da0</title>
<path fill="none" stroke="black" d="M672.85,-611.81C672.85,-603.79 672.85,-594.05 672.85,-585.07"/>
<polygon fill="black" stroke="black" points="676.35,-585.03 672.85,-575.03 669.35,-585.03 676.35,-585.03"/>
</g>
<!-- p0x12a1fc0 -->
<g id="node38" class="node">
<title>p0x12a1fc0</title>
<ellipse fill="none" stroke="black" stroke-dasharray="5,2" cx="752.85" cy="-470" rx="30.59" ry="18"/>
<text text-anchor="middle" x="752.85" y="-466.3" font-family="Times,serif" font-size="14.00">pi_c0</text>
</g>
<!-- p0x12a1fc0&#45;&gt;b0x12a17a0 -->
<g id="edge37" class="edge">
<title>p0x12a1fc0&#45;&gt;b0x12a17a0</title>
<path fill="none" stroke="black" d="M736.66,-454.63C725.24,-444.5 709.75,-430.75 696.89,-419.34"/>
<polygon fill="black" stroke="black" points="699.09,-416.61 689.29,-412.59 694.44,-421.85 699.09,-416.61"/>
</g>
<!-- a0x12a1fe0 -->
<g id="node39" class="node">
<title>a0x12a1fe0</title>
<ellipse fill="none" stroke="black" stroke-dasharray="1,5" cx="752.85" cy="-557" rx="30.59" ry="18"/>
<text text-anchor="middle" x="752.85" y="-553.3" font-family="Times,serif" font-size="14.00">at_e0</text>
</g>
<!-- a0x12a1fe0&#45;&gt;p0x12a1fc0 -->
<g id="edge38" class="edge">
<title>a0x12a1fe0&#45;&gt;p0x12a1fc0</title>
<path fill="none" stroke="black" d="M752.85,-538.8C752.85,-527.16 752.85,-511.55 752.85,-498.24"/>
<polygon fill="black" stroke="black" points="756.35,-498.18 752.85,-488.18 749.35,-498.18 756.35,-498.18"/>
<text text-anchor="middle" x="762.35" y="-509.8" font-family="Times,serif" font-size="14.00">1&#45;1</text>
</g>
<!-- cs0x12a1fe0 -->
<g id="node40" class="node">
<title>cs0x12a1fe0</title>
<ellipse fill="lightgrey" stroke="black" cx="752.85" cy="-630" rx="27" ry="18"/>
<text text-anchor="middle" x="752.85" y="-626.3" font-family="Times,serif" font-size="14.00">g</text>
</g>
<!-- cs0x12a1fe0&#45;&gt;a0x12a1fe0 -->
<g id="edge39" class="edge">
<title>cs0x12a1fe0&#45;&gt;a0x12a1fe0</title>
<path fill="none" stroke="black" d="M752.85,-611.81C752.85,-603.79 752.85,-594.05 752.85,-585.07"/>
<polygon fill="black" stroke="black" points="756.35,-585.03 752.85,-575.03 749.35,-585.03 756.35,-585.03"/>
</g>
<!-- p0x12a2270 -->
<g id="node41" class="node">
<title>p0x12a2270</title>
<ellipse fill="none" stroke="black" stroke-dasharray="5,2" cx="832.85" cy="-470" rx="31.4" ry="18"/>
<text text-anchor="middle" x="832.85" y="-466.3" font-family="Times,serif" font-size="14.00">pi_70</text>
</g>
<!-- p0x12a2270&#45;&gt;b0x12a17a0 -->
<g id="edge40" class="edge">
<title>p0x12a2270&#45;&gt;b0x12a17a0</title>
<path fill="none" stroke="black" d="M808.89,-458.37C781.83,-446.36 737.58,-426.73 706.93,-413.12"/>
<polygon fill="black" stroke="black" points="708.05,-409.79 697.49,-408.94 705.21,-416.19 708.05,-409.79"/>
</g>
<!-- a0x12a2290 -->
<g id="node42" class="node">
<title>a0x12a2290</title>
<ellipse fill="none" stroke="black" stroke-dasharray="1,5" cx="832.85" cy="-557" rx="31.4" ry="18"/>
<text text-anchor="middle" x="832.85" y="-553.3" font-family="Times,serif" font-size="14.00">at_90</text>
</g>
<!-- a0x12a2290&#45;&gt;p0x12a2270 -->
<g id="edge41" class="edge">
<title>a0x12a2290&#45;&gt;p0x12a2270</title>
<path fill="none" stroke="black" d="M832.85,-538.8C832.85,-527.16 832.85,-511.55 832.85,-498.24"/>
<polygon fill="black" stroke="black" points="836.35,-498.18 832.85,-488.18 829.35,-498.18 836.35,-498.18"/>
<text text-anchor="middle" x="842.35" y="-509.8" font-family="Times,serif" font-size="14.00">1&#45;1</text>
</g>
<!-- cs0x12a2290 -->
<g id="node43" class="node">
<title>cs0x12a2290</title>
<ellipse fill="lightgrey" stroke="black" cx="832.85" cy="-630" rx="27" ry="18"/>
<text text-anchor="middle" x="832.85" y="-626.3" font-family="Times,serif" font-size="14.00">e</text>
</g>
<!-- cs0x12a2290&#45;&gt;a0x12a2290 -->
<g id="edge42" class="edge">
<title>cs0x12a2290&#45;&gt;a0x12a2290</title>
<path fill="none" stroke="black" d="M832.85,-611.81C832.85,-603.79 832.85,-594.05 832.85,-585.07"/>
<polygon fill="black" stroke="black" points="836.35,-585.03 832.85,-575.03 829.35,-585.03 836.35,-585.03"/>
</g>
<!-- p0x12a24b0 -->
<g id="node44" class="node">
<title>p0x12a24b0</title>
<ellipse fill="none" stroke="black" stroke-dasharray="5,2" cx="913.85" cy="-470" rx="31.7" ry="18"/>
<text text-anchor="middle" x="913.85" y="-466.3" font-family="Times,serif" font-size="14.00">pi_b0</text>
</g>
<!-- p0x12a24b0&#45;&gt;b0x12a17a0 -->
<g id="edge43" class="edge">
<title>p0x12a24b0&#45;&gt;b0x12a17a0</title>
<path fill="none" stroke="black" d="M889.33,-458.23C883.95,-456.04 878.24,-453.84 872.85,-452 817.93,-433.29 752.8,-416.71 712.14,-407.02"/>
<polygon fill="black" stroke="black" points="712.89,-403.6 702.35,-404.7 711.28,-410.41 712.89,-403.6"/>
</g>
<!-- a0x12a24d0 -->
<g id="node45" class="node">
<title>a0x12a24d0</title>
<ellipse fill="none" stroke="black" stroke-dasharray="1,5" cx="913.85" cy="-557" rx="31.7" ry="18"/>
<text text-anchor="middle" x="913.85" y="-553.3" font-family="Times,serif" font-size="14.00">at_d0</text>
</g>
<!-- a0x12a24d0&#45;&gt;p0x12a24b0 -->
<g id="edge44" class="edge">
<title>a0x12a24d0&#45;&gt;p0x12a24b0</title>
<path fill="none" stroke="black" d="M913.85,-538.8C913.85,-527.16 913.85,-511.55 913.85,-498.24"/>
<polygon fill="black" stroke="black" points="917.35,-498.18 913.85,-488.18 910.35,-498.18 917.35,-498.18"/>
<text text-anchor="middle" x="923.35" y="-509.8" font-family="Times,serif" font-size="14.00">1&#45;1</text>
</g>
<!-- cs0x12a24d0 -->
<g id="node46" class="node">
<title>cs0x12a24d0</title>
<ellipse fill="lightgrey" stroke="black" cx="913.85" cy="-630" rx="27" ry="18"/>
<text text-anchor="middle" x="913.85" y="-626.3" font-family="Times,serif" font-size="14.00">x</text>
</g>
<!-- cs0x12a24d0&#45;&gt;a0x12a24d0 -->
<g id="edge45" class="edge">
<title>cs0x12a24d0&#45;&gt;a0x12a24d0</title>
<path fill="none" stroke="black" d="M913.85,-611.81C913.85,-603.79 913.85,-594.05 913.85,-585.07"/>
<polygon fill="black" stroke="black" points="917.35,-585.03 913.85,-575.03 910.35,-585.03 917.35,-585.03"/>
</g>
</g>
</svg>
